<svg display="block" role="presentation" viewBox="0 0 737 809" xmlns="http://www.w3.org/2000/svg">
  <path d="M 736 789 C 736 800.046 727.046 809 716 809 L 656 809 C 644.954 809 636 800.046 636 789 L 636 729 C 636 717.954 644.954 709 656 709 L 716 709 C 727.046 709 736 717.954 736 729 Z M 737 498 C 737 502.418 733.418 506 729 506 C 724.582 506 721 509.582 721 514 L 721 604 C 721 615.046 712.046 624 701 624 L 574 624 C 562.954 624 554 632.954 554 644 L 554 702 C 554 713.046 545.046 722 534 722 L 489 722 C 477.954 722 469 730.954 469 742 L 469 788 C 469 799.046 460.046 808 449 808 L 389 808 C 377.954 808 369 799.046 369 788 L 369 728 C 369 716.954 377.954 708 389 708 L 434 708 C 445.046 708 454 699.046 454 688 L 454 644 C 454 632.954 445.046 624 434 624 L 300 624 C 288.954 624 280 632.954 280 644 L 280 693 C 280 704.046 271.046 713 260 713 L 200 713 C 188.954 713 180 704.046 180 693 L 180 644 C 180 632.954 171.046 624 160 624 L 130 624 C 118.954 624 110 632.954 110 644 L 110 661 C 110 672.046 101.046 681 90 681 L 30 681 C 18.954 681 10 672.046 10 661 L 10 601 C 10 589.954 18.954 581 30 581 L 71 581 C 82.046 581 91 572.046 91 561 L 91 447.5 C 91 447.224 91.224 447 91.5 447 C 91.776 447 92 446.776 92 446.5 L 92 303 C 92 291.954 83.046 283 72 283 L 20 283 C 8.954 283 0 274.046 0 263 L 0 203 C 0 191.954 8.954 183 20 183 L 233 183 C 244.046 183 253 174.046 253 163 L 253 108 C 253 96.954 261.954 88 273 88 L 333 88 C 344.046 88 353 96.954 353 108 L 353 124 C 353 135.046 361.954 144 373 144 L 523 144 C 534.046 144 543 135.046 543 124 L 543 64 C 543 52.954 551.954 44 563 44 L 717 44 C 728.046 44 737 52.954 737 64 Z M 182 80 C 182 91.046 173.046 100 162 100 L 102 100 C 90.954 100 82 91.046 82 80 L 82 20 C 82 8.954 90.954 0 102 0 L 162 0 C 173.046 0 182 8.954 182 20 Z" fill="black"/>
</svg>
