<svg preserveAspectRatio="none" width="100%" height="100%" overflow="visible" style="display: block;" viewBox="0 0 678 741" fill="none" xmlns="http://www.w3.org/2000/svg">
<path id="Union" d="M262 160C262 171.046 270.954 180 282 180H433C444.046 180 453 171.046 453 160V120C453 108.954 444.046 100 433 100H393C381.954 100 373 91.0457 373 80V20C373 8.9543 381.954 0 393 0H453C464.046 0 473 8.95431 473 20V60C473 71.0457 481.954 80 493 80H533C544.046 80 553 88.9543 553 100V160C553 171.046 561.954 180 573 180H658C669.046 180 678 188.954 678 200V545C678 556.046 669.046 565 658 565H583C571.954 565 563 573.954 563 585V638C563 649.046 554.046 658 543 658H483C471.954 658 463 649.046 463 638V585C463 573.954 454.046 565 443 565H305C293.954 565 285 573.954 285 585V621C285 632.046 293.954 641 305 641H346C357.046 641 366 649.954 366 661V721C366 732.046 357.046 741 346 741H286C274.954 741 266 732.046 266 721V677C266 665.954 257.046 657 246 657H205C193.954 657 185 648.046 185 637V585C185 573.954 176.046 565 165 565H95.5C95.2239 565 95 564.776 95 564.5C95 564.224 94.7761 564 94.5 564H20C8.9543 564 0 555.046 0 544V484C0 472.954 8.95431 464 20 464H71C82.0457 464 91 455.046 91 444V380.5C91 380.224 90.7761 380 90.5 380C90.2239 380 90 379.776 90 379.5V301C90 289.954 81.0457 281 70 281H20C8.9543 281 0 272.046 0 261V201C0 189.954 8.95431 181 20 181H94.5C94.7761 181 95 180.776 95 180.5C95 180.224 95.2239 180 95.5 180H142C153.046 180 162 171.046 162 160V100C162 88.9543 170.954 80 182 80H242C253.046 80 262 88.9543 262 100V160Z" fill="var(--fill-0, black)"/>
</svg>
