<svg preserveAspectRatio="none" width="100%" height="100%" overflow="visible" style="display: block;" viewBox="0 0 790 863.407" fill="none" xmlns="http://www.w3.org/2000/svg">
<path id="Union" d="M305.28 189.734C305.28 200.78 314.235 209.734 325.28 209.734H507.832C518.878 209.734 527.832 200.78 527.832 189.734V136.52C527.832 125.474 518.878 116.52 507.832 116.52H454.616C443.571 116.52 434.616 107.565 434.616 96.5195V20C434.616 8.95431 443.571 0 454.616 0H531.136C542.181 0 551.136 8.95431 551.136 20V73.2158C551.136 84.2615 560.09 93.2158 571.136 93.2158H624.351C635.396 93.2158 644.351 102.17 644.351 113.216V189.734C644.351 200.78 653.305 209.734 664.351 209.734H770C781.046 209.734 790 218.689 790 229.734V638.333C790 649.379 781.046 658.333 770 658.333H676.003C664.957 658.333 656.003 667.287 656.003 678.333V746.696C656.003 757.742 647.049 766.696 636.003 766.696H559.483C548.438 766.696 539.483 757.742 539.483 746.696V678.333C539.483 667.287 530.529 658.333 519.483 658.333H352.08C341.034 658.333 332.08 667.287 332.08 678.333V726.888C332.08 737.933 341.034 746.888 352.08 746.888H406.46C417.506 746.888 426.46 755.842 426.46 766.888V843.407C426.46 854.453 417.506 863.407 406.46 863.407H329.941C318.896 863.407 309.941 854.453 309.941 843.407V785.531C309.941 774.486 300.987 765.531 289.941 765.531H235.561C224.515 765.531 215.561 756.577 215.561 745.531V678.333C215.561 667.287 206.606 658.333 195.561 658.333H111.276C110.954 658.333 110.693 658.072 110.693 657.75C110.693 657.429 110.433 657.168 110.111 657.168H20C8.95431 657.168 0 648.214 0 637.168V560.649C0 549.604 8.9543 540.649 20 540.649H84.5518C95.5975 540.649 104.552 531.695 104.552 520.649V442.19C104.552 442.103 104.622 442.032 104.709 442.032C104.797 442.032 104.867 441.962 104.867 441.875V347.419C104.867 336.373 95.9129 327.419 84.8672 327.419H20C8.9543 327.419 0 318.465 0 307.419V230.899C0 219.854 8.9543 210.899 20 210.899H110.111C110.433 210.899 110.693 210.639 110.693 210.317C110.693 209.995 110.954 209.734 111.276 209.734H168.761C179.806 209.734 188.761 200.78 188.761 189.734V113.216C188.761 102.17 197.715 93.2158 208.761 93.2158H285.28C296.326 93.2158 305.28 102.17 305.28 113.216V189.734Z" fill="var(--fill-0, black)"/>
</svg>
