<svg preserveAspectRatio="none" width="100%" height="100%" overflow="visible" style="display: block;" viewBox="0 0 1654.69 1647.5" fill="none" xmlns="http://www.w3.org/2000/svg">
<path id="Union" d="M554.52 91.2158C554.52 102.262 563.474 111.216 574.52 111.216H644.199C644.283 111.216 644.351 111.284 644.351 111.368C644.351 111.452 644.419 111.52 644.502 111.52H723.76C734.805 111.52 743.76 120.474 743.76 131.52V208C743.76 219.046 752.714 228 763.76 228H924C935.046 228 944 236.954 944 248V300.52C944 311.565 952.954 320.52 964 320.52H1040.52C1051.57 320.52 1060.52 311.565 1060.52 300.52V228.24C1060.52 228.108 1060.63 228 1060.76 228C1060.89 228 1061 227.892 1061 227.76V36C1061 24.9543 1069.95 16 1081 16H1157.52C1168.57 16 1177.52 24.9543 1177.52 36V97C1177.52 108.046 1186.47 117 1197.52 117H1273.52C1284.57 117 1293.52 125.954 1293.52 137V208C1293.52 219.046 1302.47 228 1313.52 228H1371C1382.05 228 1391 219.046 1391 208V135C1391 123.954 1399.95 115 1411 115H1474C1485.05 115 1494 106.046 1494 95V27C1494 15.9543 1502.95 7 1514 7H1590.52C1601.57 7 1610.52 15.9543 1610.52 27V103.52C1610.52 114.565 1601.57 123.52 1590.52 123.52H1527.52C1516.47 123.52 1507.52 132.474 1507.52 143.52V317.76C1507.52 328.805 1516.47 337.76 1527.52 337.76H1619.52C1630.57 337.76 1639.52 328.805 1639.52 317.76V235.587C1639.52 231.397 1642.92 228 1647.11 228C1651.3 228 1654.69 231.397 1654.69 235.587V1627.5C1654.69 1638.55 1645.74 1647.5 1634.69 1647.5H130.693C119.648 1647.5 110.693 1638.55 110.693 1627.5V695.168C110.693 684.122 101.739 675.168 90.6934 675.168H20C8.95431 675.168 0 666.214 0 655.168V578.649C0 567.604 8.9543 558.649 20 558.649H84.5518C95.5975 558.649 104.552 549.695 104.552 538.649V460.19C104.552 460.103 104.622 460.032 104.709 460.032C104.797 460.032 104.867 459.962 104.867 459.875V365.419C104.867 354.373 95.9129 345.419 84.8672 345.419H20C8.9543 345.419 0 336.465 0 325.419V248.899C0 237.854 8.9543 228.899 20 228.899H110.244C110.492 228.899 110.693 228.698 110.693 228.45C110.693 228.201 110.895 228 111.143 228H165C176.046 228 185 219.046 185 208V148C185 136.954 193.954 128 205 128H281.52C292.565 128 301.52 136.954 301.52 148V227.76C301.52 227.892 301.627 228 301.76 228C301.892 228 302 228.108 302 228.24V319.52C302 330.565 310.954 339.52 322 339.52H398.52C409.565 339.52 418.52 330.565 418.52 319.52V248C418.52 236.954 427.474 228 438.52 228H514.882C514.955 228 515.015 227.941 515.015 227.867C515.015 227.794 515.074 227.734 515.147 227.734H521.423C524.963 227.734 527.832 224.865 527.832 221.326V136.52C527.832 125.474 518.878 116.52 507.832 116.52H458C446.954 116.52 438 107.565 438 96.5195V20C438 8.95431 446.954 0 458 0H534.52C545.565 0 554.52 8.95431 554.52 20V91.2158ZM239 998C239 1009.05 247.954 1018 259 1018H318C329.046 1018 338 1026.95 338 1038V1103C338 1114.05 346.954 1123 358 1123H450C461.046 1123 470 1114.05 470 1103V1010C470 998.954 461.046 990 450 990H391C379.954 990 371 981.046 371 970V905C371 893.954 362.046 885 351 885H259C247.954 885 239 893.954 239 905V998ZM1462 737C1462 748.046 1453.05 757 1442 757H1382C1370.95 757 1362 765.954 1362 777V870C1362 881.046 1370.95 890 1382 890H1474C1485.05 890 1494 881.046 1494 870V800C1494 788.954 1502.95 780 1514 780H1574C1585.05 780 1594 771.046 1594 760V667C1594 655.954 1585.05 647 1574 647H1482C1470.95 647 1462 655.954 1462 667V737Z" fill="var(--fill-0, black)"/>
</svg>
