<svg preserveAspectRatio="none" width="100%" height="100%" overflow="visible" style="display: block;" viewBox="0 0 481 941.5" fill="none" xmlns="http://www.w3.org/2000/svg">
<path id="Union" d="M211 70C211 81.0457 219.954 90 231 90H288C299.046 90 308 98.9543 308 110V169.5C308 180.546 316.954 189.5 328 189.5H367C378.046 189.5 387 198.454 387 209.5V372.5C387 373.052 387.448 373.5 388 373.5C388.552 373.5 389 373.948 389 374.5V453.5C389 464.546 397.954 473.5 409 473.5H461C472.046 473.5 481 482.454 481 493.5V553.5C481 564.546 472.046 573.5 461 573.5H407C395.954 573.5 387 582.454 387 593.5V637.5C387 648.546 395.954 657.5 407 657.5H461C472.046 657.5 481 666.454 481 677.5V737.5C481 748.546 472.046 757.5 461 757.5H307.5C305.567 757.5 304 759.067 304 761C304 762.933 302.433 764.5 300.5 764.5H297.5C293.91 764.5 291 767.41 291 771V837.5C291 848.546 282.046 857.5 271 857.5H220C208.954 857.5 200 866.454 200 877.5V921.5C200 932.546 191.046 941.5 180 941.5H120C108.954 941.5 100 932.546 100 921.5V861.5C100 850.454 108.954 841.5 120 841.5H171C182.046 841.5 191 832.546 191 821.5V773.5C191 762.454 182.046 753.5 171 753.5H116C104.954 753.5 96 762.454 96 773.5V827.5C96 838.546 87.0457 847.5 76 847.5H20C8.9543 847.5 0 838.546 0 827.5V581.5C0 570.454 8.95431 561.5 20 561.5H67C78.0457 561.5 87 552.546 87 541.5V309.5C87 298.454 78.0457 289.5 67 289.5H36C24.9543 289.5 16 280.546 16 269.5V209.5C16 198.454 24.9543 189.5 36 189.5H82C93.0457 189.5 102 180.546 102 169.5V20C102 8.9543 110.954 0 122 0H191C202.046 0 211 8.95431 211 20V70Z" fill="var(--fill-0, black)"/>
</svg>
