<svg width="477" height="126" viewBox="0 0 477 126" fill="none" xmlns="http://www.w3.org/2000/svg">
<rect width="477" height="126" fill="#E3E3E3"/>
<g id="Hauptseite">
<g id="Frame 27">
<rect width="7140" height="1440" transform="translate(-2584 -1063)" fill="#FAFAFA"/>
<g id="Group 30">
<g id="Union">
<path d="M417 14.5C417 22.5081 423.492 29 431.5 29H448.8C464.264 29 476.8 41.536 476.8 57V69.5996C476.8 85.0636 464.264 97.5996 448.8 97.5996H431.2C423.358 97.5996 417 103.957 417 111.8C417 119.642 410.642 126 402.8 126H28C12.536 126 0 113.464 0 98V28C0 12.536 12.536 0 28 0H402.5C410.508 0 417 6.49187 417 14.5Z" fill="url(#paint0_radial_533_1130)"/>
<path d="M417 14.5C417 22.5081 423.492 29 431.5 29H448.8C464.264 29 476.8 41.536 476.8 57V69.5996C476.8 85.0636 464.264 97.5996 448.8 97.5996H431.2C423.358 97.5996 417 103.957 417 111.8C417 119.642 410.642 126 402.8 126H28C12.536 126 0 113.464 0 98V28C0 12.536 12.536 0 28 0H402.5C410.508 0 417 6.49187 417 14.5Z" fill="url(#paint1_radial_533_1130)" fill-opacity="0.71"/>
</g>
<path id="Instagram" d="M67.558 81C66.7554 81 66.158 80.8133 65.766 80.44C65.3927 80.048 65.206 79.4507 65.206 78.648V45.44C65.206 44.6187 65.3927 44.0213 65.766 43.648C66.158 43.2747 66.7554 43.088 67.558 43.088C68.3794 43.088 68.9767 43.2747 69.35 43.648C69.7234 44.0213 69.91 44.6187 69.91 45.44V78.648C69.91 79.4507 69.7234 80.048 69.35 80.44C68.9767 80.8133 68.3794 81 67.558 81ZM84.5077 81C82.9397 81 82.1557 80.216 82.1557 78.648V54.96C82.1557 53.392 82.9397 52.608 84.5077 52.608C86.0757 52.608 86.8597 53.392 86.8597 54.96V55.884C88.8384 53.7 91.7504 52.608 95.5957 52.608H97.1637C100.897 52.608 103.66 53.504 105.452 55.296C107.244 57.088 108.14 59.8507 108.14 63.584V78.648C108.14 80.216 107.356 81 105.788 81C104.22 81 103.436 80.216 103.436 78.648V63.584C103.436 61.1387 102.988 59.4867 102.092 58.628C101.214 57.7507 99.5717 57.312 97.1637 57.312H95.5957C93.3557 57.312 91.405 57.5733 89.7437 58.096C88.0824 58.6 87.121 59.4027 86.8597 60.504V78.648C86.8597 80.216 86.0757 81 84.5077 81ZM126.496 81C124.125 81 122.249 80.5147 120.868 79.544C119.487 78.5547 118.6 77.08 118.208 75.12C118.077 74.336 118.227 73.72 118.656 73.272C119.104 72.824 119.72 72.6 120.504 72.6C121.269 72.6 121.82 72.796 122.156 73.188C122.511 73.5613 122.8 74.1307 123.024 74.896C123.248 75.456 123.621 75.8293 124.144 76.016C124.685 76.2027 125.469 76.296 126.496 76.296H135.68C137.136 76.296 138.116 76.0627 138.62 75.596C139.124 75.1107 139.376 74.112 139.376 72.6C139.376 71.1067 139.124 70.1173 138.62 69.632C138.116 69.1467 137.136 68.904 135.68 68.904H126.664C123.976 68.904 121.951 68.2227 120.588 66.86C119.225 65.4973 118.544 63.472 118.544 60.784C118.544 58.04 119.207 55.996 120.532 54.652C121.876 53.2893 123.92 52.608 126.664 52.608H135.4C139.787 52.608 142.381 54.456 143.184 58.152C143.333 58.936 143.184 59.5427 142.736 59.972C142.288 60.4013 141.672 60.616 140.888 60.616C140.16 60.616 139.619 60.4293 139.264 60.056C138.909 59.664 138.629 59.1227 138.424 58.432C138.2 57.984 137.855 57.6853 137.388 57.536C136.94 57.3867 136.277 57.312 135.4 57.312H126.664C125.245 57.312 124.321 57.5267 123.892 57.956C123.463 58.3853 123.248 59.328 123.248 60.784C123.248 62.128 123.472 63.0333 123.92 63.5C124.387 63.9667 125.301 64.2 126.664 64.2H135.68C138.48 64.2 140.58 64.9 141.98 66.3C143.38 67.7 144.08 69.8 144.08 72.6C144.08 75.4187 143.38 77.528 141.98 78.928C140.58 80.3093 138.48 81 135.68 81H126.496ZM166.648 81C162.952 81 160.227 80.1227 158.472 78.368C156.718 76.6133 155.84 73.9067 155.84 70.248V57.312H153.096C151.528 57.312 150.744 56.528 150.744 54.96C150.744 53.392 151.528 52.608 153.096 52.608H155.84V48.52C155.84 46.952 156.624 46.168 158.192 46.168C159.76 46.168 160.544 46.952 160.544 48.52V52.608H166.984C168.552 52.608 169.336 53.392 169.336 54.96C169.336 56.528 168.552 57.312 166.984 57.312H160.544V70.248C160.544 72.6187 160.974 74.224 161.832 75.064C162.691 75.8853 164.296 76.296 166.648 76.296C167.376 76.296 167.946 76.4827 168.356 76.856C168.786 77.2293 169 77.8267 169 78.648C169 80.216 168.216 81 166.648 81ZM185.764 81C182.628 81 180.295 80.2347 178.764 78.704C177.233 77.1733 176.468 74.84 176.468 71.704C176.468 68.568 177.224 66.2347 178.736 64.704C180.267 63.1733 182.609 62.408 185.764 62.408H197.608C197.496 60.448 196.983 59.1133 196.068 58.404C195.153 57.676 193.585 57.312 191.364 57.312H188.116C186.249 57.312 184.859 57.4427 183.944 57.704C183.029 57.9467 182.385 58.3947 182.012 59.048C181.676 59.832 181.331 60.3733 180.976 60.672C180.621 60.9707 180.089 61.12 179.38 61.12C178.596 61.12 177.98 60.9053 177.532 60.476C177.084 60.028 176.953 59.44 177.14 58.712C177.7 56.6027 178.867 55.0627 180.64 54.092C182.432 53.1027 184.924 52.608 188.116 52.608H191.364C195.097 52.608 197.86 53.504 199.652 55.296C201.444 57.088 202.34 59.8507 202.34 63.584V78.648C202.34 80.216 201.556 81 199.988 81C198.42 81 197.636 80.216 197.636 78.648V77.388C195.639 79.796 192.727 81 188.9 81H185.764ZM185.764 76.296H188.9C190.281 76.296 191.579 76.1747 192.792 75.932C194.005 75.6707 195.041 75.204 195.9 74.532C196.777 73.86 197.356 72.8987 197.636 71.648V67.112H185.764C183.916 67.112 182.684 67.42 182.068 68.036C181.471 68.652 181.172 69.8747 181.172 71.704C181.172 73.552 181.471 74.784 182.068 75.4C182.684 75.9973 183.916 76.296 185.764 76.296ZM220.768 92.2C218.509 92.2 216.727 91.7427 215.42 90.828C214.132 89.9133 213.301 88.5227 212.928 86.656C212.797 85.872 212.937 85.256 213.348 84.808C213.759 84.36 214.384 84.136 215.224 84.136C215.933 84.136 216.447 84.3227 216.764 84.696C217.1 85.088 217.389 85.6667 217.632 86.432C217.856 86.8427 218.201 87.1227 218.668 87.272C219.153 87.4213 219.853 87.496 220.768 87.496H231.184C232.584 87.496 233.489 87.272 233.9 86.824C234.329 86.3947 234.544 85.4987 234.544 84.136V77.612C233.536 78.7133 232.285 79.5533 230.792 80.132C229.317 80.7107 227.656 81 225.808 81H223.68C219.965 81 217.203 80.104 215.392 78.312C213.6 76.52 212.704 73.776 212.704 70.08V63.584C212.704 59.832 213.591 57.0693 215.364 55.296C217.156 53.504 219.928 52.608 223.68 52.608H228.272C229.597 52.608 230.783 52.804 231.828 53.196C232.892 53.588 233.797 54.1853 234.544 54.988V54.96C234.544 53.392 235.328 52.608 236.896 52.608C238.464 52.608 239.248 53.392 239.248 54.96V84.136C239.248 86.88 238.585 88.9053 237.26 90.212C235.953 91.5373 233.928 92.2 231.184 92.2H220.768ZM223.68 76.296H225.808C228.272 76.296 230.344 75.988 232.024 75.372C233.704 74.756 234.544 73.776 234.544 72.432V61.232C234.544 59.72 233.993 58.6933 232.892 58.152C231.809 57.592 230.269 57.312 228.272 57.312H223.68C221.272 57.312 219.62 57.7413 218.724 58.6C217.847 59.4587 217.408 61.12 217.408 63.584V70.08C217.408 72.4507 217.847 74.084 218.724 74.98C219.601 75.8573 221.253 76.296 223.68 76.296ZM253.311 81C251.743 81 250.959 80.216 250.959 78.648V54.96C250.959 53.392 251.743 52.608 253.311 52.608C254.879 52.608 255.663 53.392 255.663 54.96V57.144C256.764 55.6507 258.164 54.5213 259.863 53.756C261.58 52.9907 263.54 52.608 265.743 52.608C267.311 52.608 268.095 53.392 268.095 54.96C268.095 56.528 267.311 57.312 265.743 57.312C262.513 57.312 260.049 57.9093 258.351 59.104C256.652 60.2987 255.756 61.876 255.663 63.836V78.648C255.663 80.216 254.879 81 253.311 81ZM282.496 81C279.36 81 277.027 80.2347 275.496 78.704C273.965 77.1733 273.2 74.84 273.2 71.704C273.2 68.568 273.956 66.2347 275.468 64.704C276.999 63.1733 279.341 62.408 282.496 62.408H294.34C294.228 60.448 293.715 59.1133 292.8 58.404C291.885 57.676 290.317 57.312 288.096 57.312H284.848C282.981 57.312 281.591 57.4427 280.676 57.704C279.761 57.9467 279.117 58.3947 278.744 59.048C278.408 59.832 278.063 60.3733 277.708 60.672C277.353 60.9707 276.821 61.12 276.112 61.12C275.328 61.12 274.712 60.9053 274.264 60.476C273.816 60.028 273.685 59.44 273.872 58.712C274.432 56.6027 275.599 55.0627 277.372 54.092C279.164 53.1027 281.656 52.608 284.848 52.608H288.096C291.829 52.608 294.592 53.504 296.384 55.296C298.176 57.088 299.072 59.8507 299.072 63.584V78.648C299.072 80.216 298.288 81 296.72 81C295.152 81 294.368 80.216 294.368 78.648V77.388C292.371 79.796 289.459 81 285.632 81H282.496ZM282.496 76.296H285.632C287.013 76.296 288.311 76.1747 289.524 75.932C290.737 75.6707 291.773 75.204 292.632 74.532C293.509 73.86 294.088 72.8987 294.368 71.648V67.112H282.496C280.648 67.112 279.416 67.42 278.8 68.036C278.203 68.652 277.904 69.8747 277.904 71.704C277.904 73.552 278.203 74.784 278.8 75.4C279.416 75.9973 280.648 76.296 282.496 76.296ZM341.86 52.608C345.388 52.608 347.917 53.4387 349.448 55.1C350.997 56.7613 351.772 59.5147 351.772 63.36V78.648C351.772 80.216 350.988 81 349.42 81C347.852 81 347.068 80.216 347.068 78.648V63.36C347.068 61.232 346.657 59.692 345.836 58.74C345.033 57.788 343.708 57.312 341.86 57.312H339.564C337.436 57.312 335.915 57.788 335 58.74C334.085 59.692 333.628 61.232 333.628 63.36V78.648C333.628 80.216 332.844 81 331.276 81C329.708 81 328.924 80.216 328.924 78.648V63.36C328.924 61.232 328.513 59.692 327.692 58.74C326.889 57.788 325.564 57.312 323.716 57.312H321.42C319.292 57.312 317.771 57.788 316.856 58.74C315.941 59.692 315.484 61.232 315.484 63.36V78.648C315.484 80.216 314.7 81 313.132 81C311.564 81 310.78 80.216 310.78 78.648V54.96C310.78 53.392 311.564 52.608 313.132 52.608C314.7 52.608 315.484 53.392 315.484 54.96V56.248C316.473 54.96 317.556 54.036 318.732 53.476C319.927 52.8973 321.345 52.608 322.988 52.608H323.716C326.031 52.608 327.851 52.9347 329.176 53.588C330.501 54.2227 331.509 55.2587 332.2 56.696C333.189 55.2213 334.235 54.176 335.336 53.56C336.456 52.9253 337.865 52.608 339.564 52.608H341.86Z" fill="white"/>
<g id="Group 28">
<path id="Union_2" d="M436.7 79.8784C436.7 78.3804 437.915 77.166 439.413 77.166C440.911 77.166 442.125 75.9516 442.125 74.4536C442.125 72.9556 443.339 71.7412 444.837 71.7412C446.335 71.7412 447.55 70.5268 447.55 69.0288C447.55 67.5308 446.335 66.3164 444.837 66.3164L418.617 66.3164C416.619 66.3164 415 64.6972 415 62.6997C415 60.7023 416.619 59.083 418.617 59.083L444.837 59.083C446.335 59.083 447.55 57.8686 447.55 56.3706C447.55 54.8726 446.335 53.6582 444.837 53.6582C443.339 53.6582 442.125 52.4438 442.125 50.9458C442.125 49.4478 440.911 48.2334 439.413 48.2334C437.915 48.2334 436.7 47.019 436.7 45.521L436.7 44.6167C436.7 42.6192 438.319 41 440.317 41L441.221 41C442.719 41 443.934 42.2144 443.934 43.7124C443.934 45.2104 445.148 46.4248 446.646 46.4248C448.144 46.4248 449.358 47.6397 449.358 49.1377C449.358 50.6357 450.573 51.8506 452.071 51.8506C453.569 51.8506 454.783 53.065 454.783 54.563L454.783 56.3706C454.783 57.8686 455.998 59.083 457.496 59.083C458.994 59.083 460.208 60.2974 460.208 61.7954L460.208 63.604C460.208 65.102 458.994 66.3164 457.496 66.3164C455.998 66.3164 454.783 67.5308 454.783 69.0288L454.783 70.8374C454.783 72.3354 453.569 73.5498 452.071 73.5498C450.573 73.5498 449.358 74.7642 449.358 76.2622C449.358 77.7602 448.144 78.9746 446.646 78.9746C445.148 78.9746 443.934 80.189 443.934 81.687C443.934 83.185 442.719 84.3994 441.221 84.3994L440.317 84.3994C438.319 84.3994 436.7 82.7802 436.7 80.7827L436.7 79.8784Z" fill="white"/>
</g>
</g>
</g>
</g>
<defs>
<radialGradient id="paint0_radial_533_1130" cx="0" cy="0" r="1" gradientUnits="userSpaceOnUse" gradientTransform="translate(-217.8 186.5) rotate(-36.0711) scale(337.133 553.305)">
<stop stop-color="#FFC100"/>
<stop offset="0.348137" stop-color="#FE0081"/>
<stop offset="0.619093" stop-color="#FE0081"/>
<stop offset="1" stop-color="#9D26D4"/>
</radialGradient>
<radialGradient id="paint1_radial_533_1130" cx="0" cy="0" r="1" gradientUnits="userSpaceOnUse" gradientTransform="translate(272.7 401.5) rotate(-107.829) scale(493.185 809.419)">
<stop stop-color="#FFC100"/>
<stop offset="0.358376" stop-color="#FE0187"/>
<stop offset="0.639529" stop-color="#FE0081"/>
<stop offset="1" stop-color="#9D26D4" stop-opacity="0"/>
</radialGradient>
</defs>
</svg>
