<svg width="598" height="160" viewBox="0 0 598 160" fill="none" xmlns="http://www.w3.org/2000/svg">
<rect width="598" height="160" fill="#E3E3E3"/>
<g id="Hauptseite">
<g id="Frame 27">
<rect width="7140" height="1440" transform="translate(-2613 -798)" fill="#0E0E0E"/>
<g id="Group 30">
<g id="Frame 96">
<g id="Union">
<path d="M598 124.889C598 144.28 582.28 160 562.889 160H35.1111C15.7198 160 0 144.28 0 124.889V35.1111C0 15.7198 15.7198 0 35.1111 0H562.889C582.28 0 598 15.7198 598 35.1111V124.889Z" fill="url(#paint0_radial_533_1130)"/>
<path d="M598 124.889C598 144.28 582.28 160 562.889 160H35.1111C15.7198 160 0 144.28 0 124.889V35.1111C0 15.7198 15.7198 0 35.1111 0H562.889C582.28 0 598 15.7198 598 35.1111V124.889Z" fill="url(#paint1_radial_533_1130)" fill-opacity="0.71"/>
</g>
<g id="Frame 95">
<path id="Instagram" d="M69.2945 105.975C68.288 105.975 67.5389 105.741 67.0474 105.272C66.5792 104.781 66.3451 104.032 66.3451 103.025V61.3835C66.3451 60.3536 66.5792 59.6045 67.0474 59.1364C67.5389 58.6682 68.288 58.4342 69.2945 58.4342C70.3244 58.4342 71.0734 58.6682 71.5416 59.1364C72.0097 59.6045 72.2438 60.3536 72.2438 61.3835V103.025C72.2438 104.032 72.0097 104.781 71.5416 105.272C71.0734 105.741 70.3244 105.975 69.2945 105.975ZM90.5488 105.975C88.5826 105.975 87.5995 104.991 87.5995 103.025V73.3213C87.5995 71.3551 88.5826 70.3719 90.5488 70.3719C92.515 70.3719 93.4981 71.3551 93.4981 73.3213V74.4799C95.9793 71.7413 99.6309 70.3719 104.453 70.3719H106.419C111.101 70.3719 114.565 71.4955 116.812 73.7426C119.059 75.9897 120.183 79.454 120.183 84.1355V103.025C120.183 104.991 119.199 105.975 117.233 105.975C115.267 105.975 114.284 104.991 114.284 103.025V84.1355C114.284 81.0691 113.722 78.9976 112.599 77.9208C111.498 76.8207 109.439 76.2706 106.419 76.2706H104.453C101.644 76.2706 99.1978 76.5983 97.1146 77.2537C95.0313 77.8857 93.8258 78.8922 93.4981 80.2733V103.025C93.4981 104.991 92.515 105.975 90.5488 105.975ZM143.201 105.975C140.228 105.975 137.876 105.366 136.143 104.149C134.411 102.908 133.299 101.059 132.808 98.6013C132.644 97.6182 132.831 96.8457 133.37 96.2839C133.931 95.7222 134.704 95.4413 135.687 95.4413C136.647 95.4413 137.337 95.6871 137.758 96.1786C138.203 96.6468 138.566 97.3607 138.847 98.3204C139.128 99.0226 139.596 99.4908 140.251 99.7248C140.93 99.9589 141.913 100.076 143.201 100.076H154.717C156.543 100.076 157.772 99.7833 158.404 99.1982C159.036 98.5896 159.352 97.3373 159.352 95.4413C159.352 93.5687 159.036 92.3281 158.404 91.7195C157.772 91.1109 156.543 90.8066 154.717 90.8066H143.411C140.041 90.8066 137.501 89.9522 135.792 88.2435C134.084 86.5348 133.229 83.9951 133.229 80.6244C133.229 77.1835 134.06 74.6204 135.722 72.9351C137.407 71.2263 139.97 70.3719 143.411 70.3719H154.366C159.867 70.3719 163.12 72.6893 164.127 77.3239C164.314 78.3071 164.127 79.0678 163.565 79.6062C163.003 80.1445 162.231 80.4137 161.248 80.4137C160.335 80.4137 159.656 80.1796 159.211 79.7115C158.767 79.2199 158.416 78.5411 158.158 77.6751C157.877 77.1133 157.444 76.7388 156.859 76.5515C156.297 76.3642 155.466 76.2706 154.366 76.2706H143.411C141.632 76.2706 140.474 76.5398 139.935 77.0782C139.397 77.6165 139.128 78.7986 139.128 80.6244C139.128 82.3097 139.409 83.445 139.97 84.0302C140.556 84.6153 141.703 84.9079 143.411 84.9079H154.717C158.228 84.9079 160.862 85.7857 162.617 87.5413C164.373 89.2968 165.25 91.9302 165.25 95.4413C165.25 98.9758 164.373 101.621 162.617 103.376C160.862 105.109 158.228 105.975 154.717 105.975H143.201ZM193.551 105.975C188.916 105.975 185.498 104.874 183.298 102.674C181.098 100.474 179.998 97.0798 179.998 92.4919V76.2706H176.557C174.591 76.2706 173.608 75.2875 173.608 73.3213C173.608 71.3551 174.591 70.3719 176.557 70.3719H179.998V65.2457C179.998 63.2795 180.981 62.2964 182.947 62.2964C184.913 62.2964 185.896 63.2795 185.896 65.2457V70.3719H193.972C195.938 70.3719 196.921 71.3551 196.921 73.3213C196.921 75.2875 195.938 76.2706 193.972 76.2706H185.896V92.4919C185.896 95.4647 186.435 97.4777 187.512 98.5311C188.588 99.561 190.601 100.076 193.551 100.076C194.464 100.076 195.177 100.31 195.692 100.778C196.231 101.246 196.5 101.995 196.5 103.025C196.5 104.991 195.517 105.975 193.551 105.975ZM217.521 105.975C213.589 105.975 210.663 105.015 208.743 103.095C206.824 101.176 205.864 98.2502 205.864 94.3177C205.864 90.3853 206.812 87.4594 208.708 85.5399C210.628 83.6205 213.565 82.6608 217.521 82.6608H232.373C232.233 80.2031 231.589 78.5294 230.442 77.6399C229.295 76.7271 227.329 76.2706 224.543 76.2706H220.47C218.13 76.2706 216.386 76.4345 215.239 76.7622C214.092 77.0665 213.284 77.6282 212.816 78.4475C212.395 79.4306 211.962 80.1094 211.517 80.4839C211.072 80.8585 210.405 81.0457 209.516 81.0457C208.533 81.0457 207.76 80.7765 207.198 80.2382C206.637 79.6764 206.473 78.9391 206.707 78.0262C207.409 75.3811 208.872 73.45 211.096 72.2328C213.343 70.9922 216.468 70.3719 220.47 70.3719H224.543C229.225 70.3719 232.689 71.4955 234.936 73.7426C237.183 75.9897 238.307 79.454 238.307 84.1355V103.025C238.307 104.991 237.324 105.975 235.358 105.975C233.391 105.975 232.408 104.991 232.408 103.025V101.445C229.904 104.465 226.252 105.975 221.454 105.975H217.521ZM217.521 100.076H221.454C223.186 100.076 224.813 99.9238 226.334 99.6195C227.856 99.2918 229.155 98.7066 230.231 97.8639C231.332 97.0213 232.057 95.8158 232.408 94.2475V88.5595H217.521C215.204 88.5595 213.659 88.9457 212.886 89.7182C212.137 90.4906 211.763 92.0238 211.763 94.3177C211.763 96.6351 212.137 98.1799 212.886 98.9524C213.659 99.7014 215.204 100.076 217.521 100.076ZM261.415 120.019C258.583 120.019 256.347 119.446 254.709 118.299C253.094 117.152 252.052 115.408 251.584 113.067C251.42 112.084 251.596 111.311 252.111 110.75C252.626 110.188 253.41 109.907 254.463 109.907C255.352 109.907 255.996 110.141 256.394 110.609C256.815 111.101 257.178 111.826 257.483 112.786C257.763 113.301 258.196 113.652 258.782 113.839C259.39 114.027 260.268 114.12 261.415 114.12H274.476C276.232 114.12 277.367 113.839 277.882 113.278C278.42 112.739 278.69 111.616 278.69 109.907V101.726C277.426 103.107 275.857 104.161 273.985 104.886C272.136 105.612 270.052 105.975 267.735 105.975H265.067C260.408 105.975 256.944 104.851 254.674 102.604C252.427 100.357 251.303 96.9159 251.303 92.2813V84.1355C251.303 79.4306 252.415 75.9663 254.639 73.7426C256.886 71.4955 260.362 70.3719 265.067 70.3719H270.825C272.487 70.3719 273.973 70.6177 275.284 71.1093C276.618 71.6008 277.753 72.3499 278.69 73.3564V73.3213C278.69 71.3551 279.673 70.3719 281.639 70.3719C283.605 70.3719 284.588 71.3551 284.588 73.3213V109.907C284.588 113.348 283.757 115.888 282.095 117.526C280.457 119.188 277.917 120.019 274.476 120.019H261.415ZM265.067 100.076H267.735C270.825 100.076 273.423 99.6897 275.53 98.9173C277.636 98.1448 278.69 96.9159 278.69 95.2306V81.1862C278.69 79.2902 277.999 78.0028 276.618 77.3239C275.26 76.6217 273.329 76.2706 270.825 76.2706H265.067C262.047 76.2706 259.975 76.809 258.852 77.8857C257.752 78.9625 257.202 81.0457 257.202 84.1355V92.2813C257.202 95.254 257.752 97.3022 258.852 98.4257C259.952 99.5259 262.024 100.076 265.067 100.076ZM302.222 105.975C300.256 105.975 299.273 104.991 299.273 103.025V73.3213C299.273 71.3551 300.256 70.3719 302.222 70.3719C304.189 70.3719 305.172 71.3551 305.172 73.3213V76.0599C306.553 74.1873 308.308 72.7712 310.438 71.8115C312.592 70.8518 315.05 70.3719 317.812 70.3719C319.778 70.3719 320.761 71.3551 320.761 73.3213C320.761 75.2875 319.778 76.2706 317.812 76.2706C313.762 76.2706 310.672 77.0196 308.542 78.5177C306.412 80.0158 305.289 81.9937 305.172 84.4515V103.025C305.172 104.991 304.189 105.975 302.222 105.975ZM338.82 105.975C334.887 105.975 331.961 105.015 330.042 103.095C328.123 101.176 327.163 98.2502 327.163 94.3177C327.163 90.3853 328.111 87.4594 330.007 85.5399C331.926 83.6205 334.864 82.6608 338.82 82.6608H353.672C353.531 80.2031 352.888 78.5294 351.741 77.6399C350.594 76.7271 348.627 76.2706 345.842 76.2706H341.769C339.428 76.2706 337.684 76.4345 336.538 76.7622C335.391 77.0665 334.583 77.6282 334.115 78.4475C333.694 79.4306 333.26 80.1094 332.816 80.4839C332.371 80.8585 331.704 81.0457 330.814 81.0457C329.831 81.0457 329.059 80.7765 328.497 80.2382C327.935 79.6764 327.771 78.9391 328.006 78.0262C328.708 75.3811 330.171 73.45 332.394 72.2328C334.642 70.9922 337.766 70.3719 341.769 70.3719H345.842C350.523 70.3719 353.988 71.4955 356.235 73.7426C358.482 75.9897 359.606 79.454 359.606 84.1355V103.025C359.606 104.991 358.622 105.975 356.656 105.975C354.69 105.975 353.707 104.991 353.707 103.025V101.445C351.202 104.465 347.551 105.975 342.752 105.975H338.82ZM338.82 100.076H342.752C344.484 100.076 346.111 99.9238 347.633 99.6195C349.154 99.2918 350.453 98.7066 351.53 97.8639C352.63 97.0213 353.356 95.8158 353.707 94.2475V88.5595H338.82C336.502 88.5595 334.958 88.9457 334.185 89.7182C333.436 90.4906 333.062 92.0238 333.062 94.3177C333.062 96.6351 333.436 98.1799 334.185 98.9524C334.958 99.7014 336.502 100.076 338.82 100.076ZM413.26 70.3719C417.684 70.3719 420.856 71.4136 422.775 73.4968C424.718 75.5801 425.69 79.0327 425.69 83.8546V103.025C425.69 104.991 424.706 105.975 422.74 105.975C420.774 105.975 419.791 104.991 419.791 103.025V83.8546C419.791 81.1862 419.276 79.2551 418.246 78.0613C417.24 76.8675 415.578 76.2706 413.26 76.2706H410.381C407.713 76.2706 405.805 76.8675 404.658 78.0613C403.511 79.2551 402.938 81.1862 402.938 83.8546V103.025C402.938 104.991 401.954 105.975 399.988 105.975C398.022 105.975 397.039 104.991 397.039 103.025V83.8546C397.039 81.1862 396.524 79.2551 395.494 78.0613C394.488 76.8675 392.826 76.2706 390.508 76.2706H387.629C384.961 76.2706 383.053 76.8675 381.906 78.0613C380.759 79.2551 380.186 81.1862 380.186 83.8546V103.025C380.186 104.991 379.202 105.975 377.236 105.975C375.27 105.975 374.287 104.991 374.287 103.025V73.3213C374.287 71.3551 375.27 70.3719 377.236 70.3719C379.202 70.3719 380.186 71.3551 380.186 73.3213V74.9364C381.426 73.3213 382.784 72.1626 384.258 71.4604C385.757 70.7348 387.536 70.3719 389.595 70.3719H390.508C393.411 70.3719 395.693 70.7816 397.355 71.6008C399.017 72.3967 400.281 73.6958 401.147 75.4982C402.388 73.649 403.698 72.3382 405.079 71.5657C406.484 70.7699 408.251 70.3719 410.381 70.3719H413.26Z" fill="white"/>
<g id="Group 28">
<path id="Union_2" d="M487.248 84.5918C484.712 84.5918 482.655 82.5355 482.655 79.999C482.655 77.4625 484.712 75.4063 487.248 75.4063L520.028 75.4062C521.93 75.4062 523.472 73.843 523.472 71.941C523.472 70.0625 521.949 68.5186 520.07 68.5186C518.192 68.5186 516.669 66.9957 516.669 65.1172L516.669 65.0312C516.669 63.1527 515.146 61.6299 513.268 61.6299C511.389 61.6299 509.866 60.107 509.866 58.2285L509.866 56.9795C509.866 54.4748 511.897 52.4443 514.401 52.4443L515.492 52.4443C517.394 52.4443 518.937 54.0083 518.937 55.9108C518.937 57.7896 520.46 59.334 522.338 59.334C524.217 59.334 525.74 60.857 525.74 62.7358L525.74 62.8223C525.74 64.7008 527.263 66.2236 529.142 66.2236C531.02 66.2236 532.543 67.7465 532.543 69.625L532.543 72.0054C532.543 73.8836 534.066 75.4062 535.944 75.4062C537.822 75.4062 539.345 76.9289 539.345 78.8071L539.345 79.999C539.345 82.5355 537.288 84.5918 534.752 84.5918L487.248 84.5918ZM509.866 101.771C509.866 99.892 511.389 98.3691 513.268 98.3691C515.146 98.3691 516.669 96.8463 516.669 94.9678L516.669 94.8818C516.669 93.0033 518.192 91.4805 520.07 91.4805C521.949 91.4805 523.472 89.9365 523.472 88.058C523.472 86.156 525.014 84.5928 526.916 84.5928L528.007 84.5928C530.512 84.5928 532.543 86.6234 532.543 89.1284L532.543 90.376C532.543 92.2545 531.02 93.7773 529.142 93.7773C527.263 93.7773 525.74 95.3002 525.74 97.1787L525.74 97.2642C525.74 99.143 524.217 100.666 522.338 100.666C520.46 100.666 518.937 102.21 518.937 104.089C518.937 105.991 517.394 107.555 515.492 107.555L514.401 107.555C511.897 107.555 509.866 105.524 509.866 103.02L509.866 101.771Z" fill="white"/>
</g>
</g>
</g>
</g>
</g>
</g>
<defs>
<radialGradient id="paint0_radial_533_1130" cx="0" cy="0" r="1" gradientTransform="matrix(341.707 -252.063 408.518 567.91 -273.114 236.825)" gradientUnits="userSpaceOnUse">
<stop offset="0.134515" stop-color="#FE0081"/>
<stop offset="0.283654" stop-color="#FFC100"/>
<stop offset="0.619093" stop-color="#FE0081"/>
<stop offset="1" stop-color="#9D26D4"/>
</radialGradient>
<radialGradient id="paint1_radial_533_1130" cx="0" cy="0" r="1" gradientTransform="matrix(-189.349 -596.19 966.243 -314.695 341.958 509.841)" gradientUnits="userSpaceOnUse">
<stop stop-color="#FFC100"/>
<stop offset="0.358376" stop-color="#FE0187"/>
<stop offset="0.639529" stop-color="#FE0081"/>
<stop offset="1" stop-color="#9D26D4" stop-opacity="0"/>
</radialGradient>
</defs>
</svg>
