<svg width="477" height="126" viewBox="0 0 477 126" fill="none" xmlns="http://www.w3.org/2000/svg">
<rect width="477" height="126" fill="#E3E3E3"/>
<g id="Hauptseite">
<g id="Frame 27">
<rect width="7140" height="1440" transform="translate(-4332 -195)" fill="#FAFAFA"/>
<g id="Group 34">
<g id="Group 31">
<path id="Union" d="M417 14.5C417 22.5081 423.492 29 431.5 29H448.8C464.264 29 476.8 41.536 476.8 57V69.5996C476.8 85.0636 464.264 97.5996 448.8 97.5996H431.2C423.358 97.5996 417 103.957 417 111.8C417 119.642 410.642 126 402.8 126H28C12.536 126 0 113.464 0 98V28C0 12.536 12.536 0 28 0H402.5C410.508 0 417 6.49187 417 14.5Z" fill="black"/>
<path id="TikTok" d="M138.729 81C137.945 81 137.357 80.804 136.965 80.412C136.573 80.02 136.377 79.432 136.377 78.648V47.792H125.513C124.729 47.792 124.141 47.596 123.749 47.204C123.357 46.812 123.161 46.224 123.161 45.44C123.161 44.656 123.357 44.068 123.749 43.676C124.141 43.284 124.729 43.088 125.513 43.088H151.945C152.729 43.088 153.317 43.284 153.709 43.676C154.101 44.068 154.297 44.656 154.297 45.44C154.297 46.224 154.101 46.812 153.709 47.204C153.317 47.596 152.729 47.792 151.945 47.792H141.081V78.648C141.081 79.3947 140.876 79.9733 140.465 80.384C140.073 80.7947 139.494 81 138.729 81ZM163.926 48.016C162.152 48.016 161.266 47.12 161.266 45.328V43.676C161.266 41.9213 162.152 41.044 163.926 41.044H165.55C167.248 41.044 168.098 41.9213 168.098 43.676V45.328C168.098 47.12 167.248 48.016 165.55 48.016H163.926ZM164.71 81C163.142 81 162.358 80.216 162.358 78.648V54.96C162.358 53.392 163.142 52.608 164.71 52.608C166.278 52.608 167.062 53.392 167.062 54.96V78.648C167.062 80.216 166.278 81 164.71 81ZM181.659 81C180.091 81 179.307 80.216 179.307 78.648V43.928C179.307 42.36 180.091 41.576 181.659 41.576C183.227 41.576 184.011 42.36 184.011 43.928V64.956L197.339 53.504C198.534 52.4773 199.635 52.552 200.643 53.728C201.67 54.9227 201.595 56.024 200.419 57.032L190.199 65.852L199.971 76.968C201.017 78.1813 200.961 79.2827 199.803 80.272C198.609 81.2987 197.489 81.224 196.443 80.048L186.615 68.96L184.011 71.2V78.648C184.011 80.216 183.227 81 181.659 81ZM219.711 81C218.927 81 218.339 80.804 217.947 80.412C217.555 80.02 217.359 79.432 217.359 78.648V47.792H206.495C205.711 47.792 205.123 47.596 204.731 47.204C204.339 46.812 204.143 46.224 204.143 45.44C204.143 44.656 204.339 44.068 204.731 43.676C205.123 43.284 205.711 43.088 206.495 43.088H232.927C233.711 43.088 234.299 43.284 234.691 43.676C235.083 44.068 235.279 44.656 235.279 45.44C235.279 46.224 235.083 46.812 234.691 47.204C234.299 47.596 233.711 47.792 232.927 47.792H222.063V78.648C222.063 79.3947 221.857 79.9733 221.447 80.384C221.055 80.7947 220.476 81 219.711 81ZM246.792 81C243.077 81 240.314 80.104 238.504 78.312C236.712 76.52 235.816 73.776 235.816 70.08V63.584C235.816 59.832 236.712 57.0693 238.504 55.296C240.314 53.504 243.077 52.608 246.792 52.608H251.384C255.117 52.608 257.88 53.504 259.672 55.296C261.464 57.088 262.36 59.8507 262.36 63.584V70.024C262.36 73.7387 261.464 76.5013 259.672 78.312C257.88 80.104 255.117 81 251.384 81H246.792ZM240.52 70.08C240.52 72.488 240.958 74.1307 241.836 75.008C242.713 75.8667 244.365 76.296 246.792 76.296H251.384C253.829 76.296 255.481 75.8573 256.34 74.98C257.217 74.1027 257.656 72.4507 257.656 70.024V63.584C257.656 61.1387 257.217 59.4867 256.34 58.628C255.481 57.7507 253.829 57.312 251.384 57.312H246.792C245.168 57.312 243.898 57.4987 242.984 57.872C242.088 58.2267 241.453 58.8613 241.08 59.776C240.706 60.672 240.52 61.9413 240.52 63.584V70.08ZM275.602 81C274.034 81 273.25 80.216 273.25 78.648V43.928C273.25 42.36 274.034 41.576 275.602 41.576C277.17 41.576 277.954 42.36 277.954 43.928V64.956L291.282 53.504C292.477 52.4773 293.578 52.552 294.586 53.728C295.613 54.9227 295.538 56.024 294.362 57.032L284.142 65.852L293.914 76.968C294.959 78.1813 294.903 79.2827 293.746 80.272C292.551 81.2987 291.431 81.224 290.386 80.048L280.558 68.96L277.954 71.2V78.648C277.954 80.216 277.17 81 275.602 81Z" fill="white"/>
<g id="Group 28">
<path id="Union_2" d="M436.7 79.8784C436.7 78.3804 437.915 77.166 439.413 77.166C440.911 77.166 442.125 75.9516 442.125 74.4536C442.125 72.9556 443.339 71.7412 444.837 71.7412C446.335 71.7412 447.55 70.5268 447.55 69.0288C447.55 67.5308 446.335 66.3164 444.837 66.3164L418.617 66.3164C416.619 66.3164 415 64.6972 415 62.6997C415 60.7023 416.619 59.083 418.617 59.083L444.837 59.083C446.335 59.083 447.55 57.8686 447.55 56.3706C447.55 54.8726 446.335 53.6582 444.837 53.6582C443.339 53.6582 442.125 52.4438 442.125 50.9458C442.125 49.4478 440.911 48.2334 439.413 48.2334C437.915 48.2334 436.7 47.019 436.7 45.521L436.7 44.6167C436.7 42.6192 438.319 41 440.317 41L441.221 41C442.719 41 443.934 42.2144 443.934 43.7124C443.934 45.2104 445.148 46.4248 446.646 46.4248C448.144 46.4248 449.358 47.6397 449.358 49.1377C449.358 50.6357 450.573 51.8506 452.071 51.8506C453.569 51.8506 454.783 53.065 454.783 54.563L454.783 56.3706C454.783 57.8686 455.998 59.083 457.496 59.083C458.994 59.083 460.208 60.2974 460.208 61.7954L460.208 63.604C460.208 65.102 458.994 66.3164 457.496 66.3164C455.998 66.3164 454.783 67.5308 454.783 69.0288L454.783 70.8374C454.783 72.3354 453.569 73.5498 452.071 73.5498C450.573 73.5498 449.358 74.7642 449.358 76.2622C449.358 77.7602 448.144 78.9746 446.646 78.9746C445.148 78.9746 443.934 80.189 443.934 81.687C443.934 83.185 442.719 84.3994 441.221 84.3994L440.317 84.3994C438.319 84.3994 436.7 82.7802 436.7 80.7827L436.7 79.8784Z" fill="white"/>
</g>
</g>
</g>
</g>
</g>
</svg>
