<svg width="1041" height="160" viewBox="0 0 1041 160" fill="none" xmlns="http://www.w3.org/2000/svg">
<rect width="1041" height="160" fill="#E3E3E3"/>
<g id="Hauptseite">
<g id="Frame 27">
<rect width="7140" height="1440" transform="translate(-653 -820)" fill="#0E0E0E"/>
<g id="Frame 29">
<path id="Union" d="M1040 24C1040 24.0701 1040.06 24.127 1040.13 24.127C1040.2 24.127 1040.25 24.1838 1040.25 24.2539V130.667C1040.25 130.737 1040.2 130.794 1040.13 130.794C1040.06 130.794 1040 130.851 1040 130.921V145.397C1040 153.462 1033.46 160 1025.4 160H20C8.95432 160 0 151.046 0 140V20C0 8.95431 8.95431 0 20 0H1027.94C1034.6 0 1040 5.401 1040 12.0635V24Z" fill="#A3DB32"/>
<g id="Frame 97">
<path id="KI Bilder und Deepfake" d="M68.4118 107C66.4207 107 65.4251 106.004 65.4251 104.013V61.7733C65.4251 59.7822 66.4207 58.7867 68.4118 58.7867C70.4029 58.7867 71.3985 59.7822 71.3985 61.7733V78.6622L89.5318 59.9244C90.9066 58.4548 92.3051 58.4311 93.7273 59.8533C95.197 61.2281 95.2207 62.6267 93.7985 64.0489L78.6873 79.6578L96.5007 101.809C97.7096 103.397 97.5673 104.796 96.074 106.004C94.5333 107.261 93.1347 107.119 91.8785 105.578L74.4918 84.0311L71.3985 87.2311V104.013C71.3985 106.004 70.4029 107 68.4118 107ZM110.907 107C109.888 107 109.13 106.763 108.632 106.289C108.158 105.791 107.921 105.033 107.921 104.013V61.8444C107.921 60.8015 108.158 60.043 108.632 59.5689C109.13 59.0948 109.888 58.8578 110.907 58.8578C111.95 58.8578 112.709 59.0948 113.183 59.5689C113.657 60.043 113.894 60.8015 113.894 61.8444V104.013C113.894 105.033 113.657 105.791 113.183 106.289C112.709 106.763 111.95 107 110.907 107ZM155.551 107C153.56 107 152.565 106.004 152.565 104.013V61.7733C152.565 59.7822 153.56 58.7867 155.551 58.7867H174.111C177.88 58.7867 180.772 59.7822 182.787 61.7733C184.825 63.7644 185.845 66.6089 185.845 70.3067V72.2267C185.845 75.4267 184.837 77.9037 182.822 79.6578C186.591 81.7674 188.476 85.6193 188.476 91.2133V93.6311C188.476 97.9926 187.314 101.311 184.991 103.587C182.692 105.862 179.374 107 175.036 107H155.551ZM158.538 101.027H175.036C177.714 101.027 179.622 100.458 180.76 99.32C181.922 98.1585 182.502 96.2622 182.502 93.6311V91.2133C182.502 88.5822 181.945 86.7096 180.831 85.5956C179.717 84.4578 177.785 83.8889 175.036 83.8889H158.538V101.027ZM158.538 77.9156H175.391C177.122 77.9156 178.295 77.3822 178.911 76.3156C179.551 75.2489 179.871 73.8859 179.871 72.2267V70.3067C179.871 68.2444 179.445 66.8104 178.591 66.0044C177.738 65.1748 176.245 64.76 174.111 64.76H158.538V77.9156ZM203.163 65.1156C200.911 65.1156 199.785 63.9778 199.785 61.7022V59.6044C199.785 57.3763 200.911 56.2622 203.163 56.2622H205.225C207.382 56.2622 208.46 57.3763 208.46 59.6044V61.7022C208.46 63.9778 207.382 65.1156 205.225 65.1156H203.163ZM204.158 107C202.167 107 201.171 106.004 201.171 104.013V73.9333C201.171 71.9422 202.167 70.9467 204.158 70.9467C206.149 70.9467 207.145 71.9422 207.145 73.9333V104.013C207.145 106.004 206.149 107 204.158 107ZM233.433 107C229.806 107 227.104 106.111 225.326 104.333C223.572 102.532 222.695 99.8178 222.695 96.1911V59.9244C222.695 57.9333 223.69 56.9378 225.681 56.9378C227.673 56.9378 228.668 57.9333 228.668 59.9244V96.1911C228.668 98.1111 228.976 99.403 229.593 100.067C230.233 100.707 231.513 101.027 233.433 101.027C235.471 101.027 236.49 102.022 236.49 104.013C236.561 106.004 235.542 107 233.433 107ZM258.671 107C253.954 107 250.446 105.862 248.147 103.587C245.871 101.287 244.734 97.7793 244.734 93.0622V84.8844C244.734 80.1437 245.871 76.6356 248.147 74.36C250.446 72.0844 253.954 70.9467 258.671 70.9467H272.467V59.9244C272.467 57.9333 273.463 56.9378 275.454 56.9378C277.445 56.9378 278.44 57.9333 278.44 59.9244V104.013C278.44 106.004 277.445 107 275.454 107C273.463 107 272.467 106.004 272.467 104.013V103.516C271.353 104.653 269.895 105.519 268.094 106.111C266.292 106.704 264.052 107 261.374 107H258.671ZM258.671 101.027H261.374C264.503 101.027 267.134 100.624 269.267 99.8178C271.4 99.0119 272.467 97.7793 272.467 96.12V76.92H258.671C255.59 76.92 253.492 77.4889 252.378 78.6267C251.264 79.7407 250.707 81.8267 250.707 84.8844V93.0622C250.707 96.1437 251.264 98.2415 252.378 99.3556C253.516 100.47 255.614 101.027 258.671 101.027ZM297.578 91.4267V93.1333C297.578 96.1911 298.135 98.277 299.249 99.3911C300.363 100.481 302.461 101.027 305.542 101.027H311.373C313.791 101.027 315.581 100.801 316.742 100.351C317.904 99.9007 318.674 99.1067 319.053 97.9689C319.314 97.0681 319.669 96.3807 320.12 95.9067C320.594 95.4326 321.305 95.1956 322.253 95.1956C323.249 95.1956 324.007 95.4563 324.529 95.9778C325.05 96.4993 325.216 97.2578 325.027 98.2533C324.505 101.193 323.107 103.385 320.831 104.831C318.555 106.277 315.403 107 311.373 107H305.542C300.825 107 297.317 105.862 295.018 103.587C292.742 101.311 291.604 97.8267 291.604 93.1333V84.8844C291.604 80.0726 292.742 76.5407 295.018 74.2889C297.317 72.0133 300.825 70.8993 305.542 70.9467H311.373C316.114 70.9467 319.622 72.0844 321.898 74.36C324.173 76.6118 325.311 80.12 325.311 84.8844V88.44C325.311 90.4311 324.315 91.4267 322.324 91.4267H297.578ZM305.542 76.92C302.461 76.8726 300.363 77.4059 299.249 78.52C298.135 79.6341 297.578 81.7556 297.578 84.8844V85.4533H319.338V84.8844C319.338 81.7793 318.781 79.6815 317.667 78.5911C316.576 77.477 314.478 76.92 311.373 76.92H305.542ZM342.127 107C340.135 107 339.14 106.004 339.14 104.013V73.9333C339.14 71.9422 340.135 70.9467 342.127 70.9467C344.118 70.9467 345.113 71.9422 345.113 73.9333V76.7067C346.512 74.8104 348.29 73.3763 350.447 72.4044C352.627 71.4326 355.116 70.9467 357.913 70.9467C359.904 70.9467 360.9 71.9422 360.9 73.9333C360.9 75.9244 359.904 76.92 357.913 76.92C353.812 76.92 350.684 77.6785 348.527 79.1956C346.37 80.7126 345.232 82.7156 345.113 85.2044V104.013C345.113 106.004 344.118 107 342.127 107ZM422.665 70.9467C424.656 70.9467 425.652 71.9422 425.652 73.9333V104.013C425.652 106.004 424.656 107 422.665 107C420.674 107 419.678 106.004 419.678 104.013V102.84C417.166 105.613 413.468 107 408.585 107H406.594C401.877 107 398.369 105.862 396.069 103.587C393.794 101.287 392.656 97.7793 392.656 93.0622V73.9333C392.656 71.9422 393.652 70.9467 395.643 70.9467C397.634 70.9467 398.629 71.9422 398.629 73.9333V93.0622C398.629 96.1437 399.186 98.2415 400.301 99.3556C401.438 100.47 403.536 101.027 406.594 101.027H408.585C411.429 101.027 413.906 100.695 416.016 100.031C418.149 99.3674 419.37 98.3481 419.678 96.9733V73.9333C419.678 71.9422 420.674 70.9467 422.665 70.9467ZM444.197 107C442.206 107 441.21 106.004 441.21 104.013V73.9333C441.21 71.9422 442.206 70.9467 444.197 70.9467C446.188 70.9467 447.183 71.9422 447.183 73.9333V75.1067C449.696 72.3333 453.394 70.9467 458.277 70.9467H460.268C465.009 70.9467 468.517 72.0844 470.792 74.36C473.068 76.6356 474.206 80.1437 474.206 84.8844V104.013C474.206 106.004 473.21 107 471.219 107C469.228 107 468.232 106.004 468.232 104.013V84.8844C468.232 81.7793 467.663 79.6815 466.526 78.5911C465.411 77.477 463.326 76.92 460.268 76.92H458.277C455.432 76.92 452.955 77.2518 450.846 77.9156C448.736 78.5556 447.515 79.5748 447.183 80.9733V104.013C447.183 106.004 446.188 107 444.197 107ZM501.284 107C496.567 107 493.059 105.862 490.76 103.587C488.484 101.287 487.346 97.7793 487.346 93.0622V84.8844C487.346 80.1437 488.484 76.6356 490.76 74.36C493.059 72.0844 496.567 70.9467 501.284 70.9467H515.08V59.9244C515.08 57.9333 516.075 56.9378 518.066 56.9378C520.057 56.9378 521.053 57.9333 521.053 59.9244V104.013C521.053 106.004 520.057 107 518.066 107C516.075 107 515.08 106.004 515.08 104.013V103.516C513.965 104.653 512.508 105.519 510.706 106.111C508.905 106.704 506.665 107 503.986 107H501.284ZM501.284 101.027H503.986C507.115 101.027 509.746 100.624 511.88 99.8178C514.013 99.0119 515.08 97.7793 515.08 96.12V76.92H501.284C498.202 76.92 496.105 77.4889 494.991 78.6267C493.877 79.7407 493.32 81.8267 493.32 84.8844V93.0622C493.32 96.1437 493.877 98.2415 494.991 99.3556C496.128 100.47 498.226 101.027 501.284 101.027ZM562.031 107C560.04 107 559.044 106.004 559.044 104.013V61.7733C559.044 59.7822 560.04 58.7867 562.031 58.7867H579.169C585.355 58.7867 589.906 60.2563 592.822 63.1955C595.761 66.1111 597.231 70.6622 597.231 76.8489V88.9378C597.231 95.1244 595.773 99.6874 592.857 102.627C589.966 105.542 585.403 107 579.169 107H562.031ZM565.017 101.027H579.169C582.203 101.027 584.597 100.659 586.351 99.9244C588.129 99.1659 589.385 97.9096 590.12 96.1556C590.878 94.3778 591.257 91.9719 591.257 88.9378V76.8489C591.257 73.8385 590.878 71.4563 590.12 69.7022C589.385 67.9244 588.129 66.6563 586.351 65.8978C584.597 65.1393 582.203 64.76 579.169 64.76H565.017V101.027ZM615.32 91.4267V93.1333C615.32 96.1911 615.877 98.277 616.991 99.3911C618.105 100.481 620.203 101.027 623.285 101.027H629.116C631.534 101.027 633.323 100.801 634.485 100.351C635.646 99.9007 636.417 99.1067 636.796 97.9689C637.057 97.0681 637.412 96.3807 637.862 95.9067C638.337 95.4326 639.048 95.1956 639.996 95.1956C640.991 95.1956 641.75 95.4563 642.271 95.9778C642.793 96.4993 642.959 97.2578 642.769 98.2533C642.248 101.193 640.849 103.385 638.574 104.831C636.298 106.277 633.145 107 629.116 107H623.285C618.568 107 615.06 105.862 612.76 103.587C610.485 101.311 609.347 97.8267 609.347 93.1333V84.8844C609.347 80.0726 610.485 76.5407 612.76 74.2889C615.06 72.0133 618.568 70.8993 623.285 70.9467H629.116C633.857 70.9467 637.365 72.0844 639.64 74.36C641.916 76.6118 643.054 80.12 643.054 84.8844V88.44C643.054 90.4311 642.058 91.4267 640.067 91.4267H615.32ZM623.285 76.92C620.203 76.8726 618.105 77.4059 616.991 78.52C615.877 79.6341 615.32 81.7556 615.32 84.8844V85.4533H637.08V84.8844C637.08 81.7793 636.523 79.6815 635.409 78.5911C634.319 77.477 632.221 76.92 629.116 76.92H623.285ZM661.149 91.4267V93.1333C661.149 96.1911 661.706 98.277 662.82 99.3911C663.934 100.481 666.032 101.027 669.114 101.027H674.945C677.362 101.027 679.152 100.801 680.314 100.351C681.475 99.9007 682.245 99.1067 682.625 97.9689C682.885 97.0681 683.241 96.3807 683.691 95.9067C684.165 95.4326 684.877 95.1956 685.825 95.1956C686.82 95.1956 687.579 95.4563 688.1 95.9778C688.622 96.4993 688.788 97.2578 688.598 98.2533C688.077 101.193 686.678 103.385 684.402 104.831C682.127 106.277 678.974 107 674.945 107H669.114C664.397 107 660.888 105.862 658.589 103.587C656.314 101.311 655.176 97.8267 655.176 93.1333V84.8844C655.176 80.0726 656.314 76.5407 658.589 74.2889C660.888 72.0133 664.397 70.8993 669.114 70.9467H674.945C679.685 70.9467 683.194 72.0844 685.469 74.36C687.745 76.6118 688.882 80.12 688.882 84.8844V88.44C688.882 90.4311 687.887 91.4267 685.896 91.4267H661.149ZM669.114 76.92C666.032 76.8726 663.934 77.4059 662.82 78.52C661.706 79.6341 661.149 81.7556 661.149 84.8844V85.4533H682.909V84.8844C682.909 81.7793 682.352 79.6815 681.238 78.5911C680.148 77.477 678.05 76.92 674.945 76.92H669.114ZM705.698 121.222C703.707 121.222 702.711 120.227 702.711 118.236V73.9333C702.711 71.9422 703.707 70.9467 705.698 70.9467C707.689 70.9467 708.685 71.9422 708.685 73.9333V74.8222C709.965 73.5422 711.541 72.5822 713.414 71.9422C715.31 71.2785 717.431 70.9467 719.778 70.9467H722.48C727.221 70.9467 730.729 72.0844 733.005 74.36C735.28 76.6356 736.418 80.1437 736.418 84.8844V93.0622C736.418 97.7793 735.28 101.287 733.005 103.587C730.729 105.862 727.221 107 722.48 107H708.685V118.236C708.685 120.227 707.689 121.222 705.698 121.222ZM708.685 101.027H722.48C725.585 101.027 727.683 100.47 728.774 99.3556C729.888 98.2415 730.445 96.1437 730.445 93.0622V84.8844C730.445 81.7793 729.888 79.6815 728.774 78.5911C727.683 77.477 725.585 76.92 722.48 76.92H719.778C716.815 76.92 714.255 77.2756 712.098 77.9867C709.941 78.6978 708.803 79.8237 708.685 81.3644V101.027ZM754.614 107C752.623 107 751.628 106.004 751.628 104.013V76.92H748.996C747.005 76.92 746.01 75.9244 746.01 73.9333C746.01 71.9422 747.005 70.9467 748.996 70.9467H751.628V70.6622C751.628 65.9926 752.754 62.5437 755.005 60.3156C757.257 58.0637 760.706 56.9378 765.352 56.9378C767.059 56.9378 767.912 57.9333 767.912 59.9244C767.912 61.9156 767.059 62.9111 765.352 62.9111C762.365 62.9111 760.327 63.4444 759.236 64.5111C758.146 65.5778 757.601 67.6281 757.601 70.6622V70.9467H764.925C766.916 70.9467 767.912 71.9422 767.912 73.9333C767.912 75.9244 766.916 76.92 764.925 76.92H757.601V104.013C757.601 106.004 756.605 107 754.614 107ZM788.865 107C784.883 107 781.92 106.028 779.976 104.084C778.033 102.141 777.061 99.1778 777.061 95.1956C777.061 91.2133 778.021 88.2504 779.941 86.3067C781.885 84.363 784.859 83.3911 788.865 83.3911H803.905C803.763 80.9022 803.111 79.2074 801.95 78.3067C800.788 77.3822 798.797 76.92 795.976 76.92H791.852C789.482 76.92 787.716 77.0859 786.554 77.4178C785.393 77.7259 784.575 78.2948 784.101 79.1244C783.674 80.12 783.236 80.8074 782.785 81.1867C782.335 81.5659 781.659 81.7556 780.759 81.7556C779.763 81.7556 778.981 81.483 778.412 80.9378C777.843 80.3689 777.677 79.6222 777.914 78.6978C778.625 76.0193 780.107 74.0637 782.359 72.8311C784.634 71.5748 787.799 70.9467 791.852 70.9467H795.976C800.717 70.9467 804.225 72.0844 806.501 74.36C808.776 76.6356 809.914 80.1437 809.914 84.8844V104.013C809.914 106.004 808.919 107 806.928 107C804.936 107 803.941 106.004 803.941 104.013V102.413C801.405 105.471 797.707 107 792.848 107H788.865ZM788.865 101.027H792.848C794.602 101.027 796.249 100.873 797.79 100.564C799.33 100.233 800.646 99.64 801.736 98.7867C802.85 97.9333 803.585 96.7126 803.941 95.1244V89.3644H788.865C786.519 89.3644 784.954 89.7556 784.172 90.5378C783.413 91.32 783.034 92.8726 783.034 95.1956C783.034 97.5422 783.413 99.1067 784.172 99.8889C784.954 100.647 786.519 101.027 788.865 101.027ZM827.768 107C825.777 107 824.781 106.004 824.781 104.013V59.9244C824.781 57.9333 825.777 56.9378 827.768 56.9378C829.759 56.9378 830.755 57.9333 830.755 59.9244V86.6267L847.679 72.0844C849.196 70.7807 850.595 70.8756 851.875 72.3689C853.179 73.8859 853.084 75.2844 851.59 76.5644L838.613 87.7644L851.021 101.88C852.349 103.421 852.278 104.819 850.808 106.076C849.291 107.379 847.869 107.284 846.541 105.791L834.061 91.7111L830.755 94.5556V104.013C830.755 106.004 829.759 107 827.768 107ZM864.53 91.4267V93.1333C864.53 96.1911 865.087 98.277 866.201 99.3911C867.315 100.481 869.413 101.027 872.494 101.027H878.325C880.743 101.027 882.533 100.801 883.694 100.351C884.856 99.9007 885.626 99.1067 886.005 97.9689C886.266 97.0681 886.622 96.3807 887.072 95.9067C887.546 95.4326 888.257 95.1956 889.205 95.1956C890.201 95.1956 890.959 95.4563 891.481 95.9778C892.002 96.4993 892.168 97.2578 891.979 98.2533C891.457 101.193 890.059 103.385 887.783 104.831C885.508 106.277 882.355 107 878.325 107H872.494C867.777 107 864.269 105.862 861.97 103.587C859.694 101.311 858.557 97.8267 858.557 93.1333V84.8844C858.557 80.0726 859.694 76.5407 861.97 74.2889C864.269 72.0133 867.777 70.8993 872.494 70.9467H878.325C883.066 70.9467 886.574 72.0844 888.85 74.36C891.125 76.6118 892.263 80.12 892.263 84.8844V88.44C892.263 90.4311 891.268 91.4267 889.277 91.4267H864.53ZM872.494 76.92C869.413 76.8726 867.315 77.4059 866.201 78.52C865.087 79.6341 864.53 81.7556 864.53 84.8844V85.4533H886.29V84.8844C886.29 81.7793 885.733 79.6815 884.619 78.5911C883.528 77.477 881.431 76.92 878.325 76.92H872.494Z" fill="black"/>
<g id="Group 28">
<path id="Union_2" d="M975.979 101.814C975.979 99.9122 977.521 98.3701 979.423 98.3701C981.325 98.3701 982.867 96.828 982.867 94.9258C982.867 93.0235 984.41 91.4814 986.312 91.4814C988.215 91.4814 989.757 89.9394 989.757 88.0371C989.757 86.1349 988.215 84.5928 986.313 84.5928L953.015 84.5928C950.479 84.5928 948.423 82.5367 948.423 80.0005C948.423 77.4642 950.479 75.4082 953.015 75.4082L986.313 75.4082C988.215 75.4082 989.757 73.8661 989.757 71.9639C989.757 70.0616 988.215 68.5195 986.312 68.5195C984.41 68.5195 982.867 66.9774 982.867 65.0752C982.867 63.1729 981.325 61.6309 979.423 61.6309C977.521 61.6309 975.979 60.0888 975.979 58.1865L975.979 57.0381C975.979 54.5016 978.035 52.4453 980.572 52.4453L981.72 52.4453C983.622 52.4453 985.164 53.9874 985.164 55.8896C985.164 57.7919 986.706 59.334 988.609 59.334C990.511 59.334 992.053 60.8765 992.053 62.7788C992.053 64.6811 993.595 66.2236 995.497 66.2236C997.4 66.2236 998.942 67.7657 998.942 69.668L998.942 71.9634C998.942 73.8659 1000.48 75.4082 1002.39 75.4082C1004.29 75.4082 1005.83 76.9505 1005.83 78.853L1005.83 81.1479C1005.83 83.0505 1004.29 84.5928 1002.39 84.5928C1000.48 84.5928 998.942 86.1351 998.942 88.0376L998.942 90.334C998.942 92.2362 997.4 93.7783 995.497 93.7783C993.595 93.7783 992.053 95.3204 992.053 97.2227C992.053 99.1249 990.511 100.667 988.609 100.667C986.706 100.667 985.164 102.209 985.164 104.111C985.164 106.014 983.622 107.556 981.72 107.556L980.572 107.556C978.035 107.556 975.979 105.499 975.979 102.963L975.979 101.814Z" fill="black"/>
</g>
</g>
</g>
</g>
</g>
</svg>
