<svg width="477" height="126" viewBox="0 0 477 126" fill="none" xmlns="http://www.w3.org/2000/svg">
<rect width="477" height="126" fill="#E3E3E3"/>
<g id="Hauptseite">
<g id="Frame 27">
<rect width="7140" height="1440" transform="translate(-5980 -1066)" fill="#FAFAFA"/>
<g id="Group 35">
<g id="Group 31">
<path id="Union" d="M417 14.5C417 22.5081 423.492 29 431.5 29H448.8C464.264 29 476.8 41.536 476.8 57V69.5996C476.8 85.0636 464.264 97.5996 448.8 97.5996H431.2C423.358 97.5996 417 103.957 417 111.8C417 119.642 410.642 126 402.8 126H28C12.536 126 0 113.464 0 98V28C0 12.536 12.536 0 28 0H402.5C410.508 0 417 6.49187 417 14.5Z" fill="#EE2C6B"/>
<path id="Tinder" d="M132.631 81C131.847 81 131.259 80.804 130.867 80.412C130.475 80.02 130.279 79.432 130.279 78.648V47.792H119.415C118.631 47.792 118.043 47.596 117.651 47.204C117.259 46.812 117.063 46.224 117.063 45.44C117.063 44.656 117.259 44.068 117.651 43.676C118.043 43.284 118.631 43.088 119.415 43.088H145.847C146.631 43.088 147.219 43.284 147.611 43.676C148.003 44.068 148.199 44.656 148.199 45.44C148.199 46.224 148.003 46.812 147.611 47.204C147.219 47.596 146.631 47.792 145.847 47.792H134.983V78.648C134.983 79.3947 134.778 79.9733 134.367 80.384C133.975 80.7947 133.397 81 132.631 81ZM157.828 48.016C156.055 48.016 155.168 47.12 155.168 45.328V43.676C155.168 41.9213 156.055 41.044 157.828 41.044H159.452C161.151 41.044 162 41.9213 162 43.676V45.328C162 47.12 161.151 48.016 159.452 48.016H157.828ZM158.612 81C157.044 81 156.26 80.216 156.26 78.648V54.96C156.26 53.392 157.044 52.608 158.612 52.608C160.18 52.608 160.964 53.392 160.964 54.96V78.648C160.964 80.216 160.18 81 158.612 81ZM175.562 81C173.994 81 173.21 80.216 173.21 78.648V54.96C173.21 53.392 173.994 52.608 175.562 52.608C177.13 52.608 177.914 53.392 177.914 54.96V55.884C179.892 53.7 182.804 52.608 186.65 52.608H188.218C191.951 52.608 194.714 53.504 196.506 55.296C198.298 57.088 199.194 59.8507 199.194 63.584V78.648C199.194 80.216 198.41 81 196.842 81C195.274 81 194.49 80.216 194.49 78.648V63.584C194.49 61.1387 194.042 59.4867 193.146 58.628C192.268 57.7507 190.626 57.312 188.218 57.312H186.65C184.41 57.312 182.459 57.5733 180.798 58.096C179.136 58.6 178.175 59.4027 177.914 60.504V78.648C177.914 80.216 177.13 81 175.562 81ZM220.518 81C216.803 81 214.04 80.104 212.23 78.312C210.438 76.5013 209.542 73.7387 209.542 70.024V63.584C209.542 59.8507 210.438 57.088 212.23 55.296C214.04 53.504 216.803 52.608 220.518 52.608H231.382V43.928C231.382 42.36 232.166 41.576 233.734 41.576C235.302 41.576 236.086 42.36 236.086 43.928V78.648C236.086 80.216 235.302 81 233.734 81C232.166 81 231.382 80.216 231.382 78.648V78.256C230.504 79.152 229.356 79.8333 227.938 80.3C226.519 80.7667 224.755 81 222.646 81H220.518ZM220.518 76.296H222.646C225.11 76.296 227.182 75.9787 228.862 75.344C230.542 74.7093 231.382 73.7387 231.382 72.432V57.312H220.518C218.091 57.312 216.439 57.76 215.562 58.656C214.684 59.5333 214.246 61.176 214.246 63.584V70.024C214.246 72.4507 214.684 74.1027 215.562 74.98C216.458 75.8573 218.11 76.296 220.518 76.296ZM251.156 68.736V70.08C251.156 72.488 251.595 74.1307 252.472 75.008C253.35 75.8667 255.002 76.296 257.428 76.296H262.02C263.924 76.296 265.334 76.1187 266.248 75.764C267.163 75.4093 267.77 74.784 268.068 73.888C268.274 73.1787 268.554 72.6373 268.908 72.264C269.282 71.8907 269.842 71.704 270.588 71.704C271.372 71.704 271.97 71.9093 272.38 72.32C272.791 72.7307 272.922 73.328 272.772 74.112C272.362 76.4267 271.26 78.1533 269.468 79.292C267.676 80.4307 265.194 81 262.02 81H257.428C253.714 81 250.951 80.104 249.14 78.312C247.348 76.52 246.452 73.776 246.452 70.08V63.584C246.452 59.7947 247.348 57.0133 249.14 55.24C250.951 53.448 253.714 52.5707 257.428 52.608H262.02C265.754 52.608 268.516 53.504 270.308 55.296C272.1 57.0693 272.996 59.832 272.996 63.584V66.384C272.996 67.952 272.212 68.736 270.644 68.736H251.156ZM257.428 57.312C255.002 57.2747 253.35 57.6947 252.472 58.572C251.595 59.4493 251.156 61.12 251.156 63.584V64.032H268.292V63.584C268.292 61.1387 267.854 59.4867 266.976 58.628C266.118 57.7507 264.466 57.312 262.02 57.312H257.428ZM286.239 81C284.671 81 283.887 80.216 283.887 78.648V54.96C283.887 53.392 284.671 52.608 286.239 52.608C287.807 52.608 288.591 53.392 288.591 54.96V57.144C289.692 55.6507 291.092 54.5213 292.791 53.756C294.508 52.9907 296.468 52.608 298.671 52.608C300.239 52.608 301.023 53.392 301.023 54.96C301.023 56.528 300.239 57.312 298.671 57.312C295.441 57.312 292.977 57.9093 291.279 59.104C289.58 60.2987 288.684 61.876 288.591 63.836V78.648C288.591 80.216 287.807 81 286.239 81Z" fill="white"/>
<g id="Group 28">
<path id="Union_2" d="M436.7 79.8784C436.7 78.3804 437.915 77.166 439.413 77.166C440.911 77.166 442.125 75.9516 442.125 74.4536C442.125 72.9556 443.339 71.7412 444.837 71.7412C446.335 71.7412 447.55 70.5268 447.55 69.0288C447.55 67.5308 446.335 66.3164 444.837 66.3164L418.617 66.3164C416.619 66.3164 415 64.6972 415 62.6997C415 60.7023 416.619 59.083 418.617 59.083L444.837 59.083C446.335 59.083 447.55 57.8686 447.55 56.3706C447.55 54.8726 446.335 53.6582 444.837 53.6582C443.339 53.6582 442.125 52.4438 442.125 50.9458C442.125 49.4478 440.911 48.2334 439.413 48.2334C437.915 48.2334 436.7 47.019 436.7 45.521L436.7 44.6167C436.7 42.6192 438.319 41 440.317 41L441.221 41C442.719 41 443.934 42.2144 443.934 43.7124C443.934 45.2104 445.148 46.4248 446.646 46.4248C448.144 46.4248 449.358 47.6397 449.358 49.1377C449.358 50.6357 450.573 51.8506 452.071 51.8506C453.569 51.8506 454.783 53.065 454.783 54.563L454.783 56.3706C454.783 57.8686 455.998 59.083 457.496 59.083C458.994 59.083 460.208 60.2974 460.208 61.7954L460.208 63.604C460.208 65.102 458.994 66.3164 457.496 66.3164C455.998 66.3164 454.783 67.5308 454.783 69.0288L454.783 70.8374C454.783 72.3354 453.569 73.5498 452.071 73.5498C450.573 73.5498 449.358 74.7642 449.358 76.2622C449.358 77.7602 448.144 78.9746 446.646 78.9746C445.148 78.9746 443.934 80.189 443.934 81.687C443.934 83.185 442.719 84.3994 441.221 84.3994L440.317 84.3994C438.319 84.3994 436.7 82.7802 436.7 80.7827L436.7 79.8784Z" fill="white"/>
</g>
</g>
</g>
</g>
</g>
</svg>
