<svg width="491" height="154" viewBox="0 0 491 154" fill="none" xmlns="http://www.w3.org/2000/svg">
<rect width="491" height="154" fill="#E3E3E3"/>
<g id="Hauptseite">
<g id="Frame 27">
<rect width="7140" height="1440" transform="translate(-4322 -182)" fill="#FAFAFA"/>
<g id="Group 34">
<g id="Group 32">
<path id="Union" d="M417 14.5C417 22.5081 423.492 29 431.5 29H448.8C464.264 29 476.8 41.536 476.8 57V69.5996C476.8 85.0636 464.264 97.5996 448.8 97.5996H431.2C423.358 97.5996 417 103.957 417 111.8C417 119.642 410.642 126 402.8 126H28C12.536 126 0 113.464 0 98V28C0 12.536 12.536 0 28 0H402.5C410.508 0 417 6.49187 417 14.5Z" fill="#00F7EF"/>
</g>
<g id="Group 33">
<path id="Union_2" d="M431 42.5C431 50.5081 437.492 57 445.5 57H462.8C478.264 57 490.8 69.536 490.8 85V97.5996C490.8 113.064 478.264 125.6 462.8 125.6H445.2C437.358 125.6 431 131.957 431 139.8C431 147.642 424.642 154 416.8 154H42C26.536 154 14 141.464 14 126V56C14 40.536 26.536 28 42 28H416.5C424.508 28 431 34.4919 431 42.5Z" fill="#FF004F"/>
</g>
<g id="Group 31">
<path id="Union_3" d="M427 27.5C427 35.5081 433.492 42 441.5 42H458.8C474.264 42 486.8 54.536 486.8 70V82.5996C486.8 98.0636 474.264 110.6 458.8 110.6H441.2C433.358 110.6 427 116.957 427 124.8C427 132.642 420.642 139 412.8 139H38C22.536 139 10 126.464 10 111V41C10 25.536 22.536 13 38 13H412.5C420.508 13 427 19.4919 427 27.5Z" fill="black"/>
<path id="TikTok" d="M148.729 94C147.945 94 147.357 93.804 146.965 93.412C146.573 93.02 146.377 92.432 146.377 91.648V60.792H135.513C134.729 60.792 134.141 60.596 133.749 60.204C133.357 59.812 133.161 59.224 133.161 58.44C133.161 57.656 133.357 57.068 133.749 56.676C134.141 56.284 134.729 56.088 135.513 56.088H161.945C162.729 56.088 163.317 56.284 163.709 56.676C164.101 57.068 164.297 57.656 164.297 58.44C164.297 59.224 164.101 59.812 163.709 60.204C163.317 60.596 162.729 60.792 161.945 60.792H151.081V91.648C151.081 92.3947 150.876 92.9733 150.465 93.384C150.073 93.7947 149.494 94 148.729 94ZM173.926 61.016C172.152 61.016 171.266 60.12 171.266 58.328V56.676C171.266 54.9213 172.152 54.044 173.926 54.044H175.55C177.248 54.044 178.098 54.9213 178.098 56.676V58.328C178.098 60.12 177.248 61.016 175.55 61.016H173.926ZM174.71 94C173.142 94 172.358 93.216 172.358 91.648V67.96C172.358 66.392 173.142 65.608 174.71 65.608C176.278 65.608 177.062 66.392 177.062 67.96V91.648C177.062 93.216 176.278 94 174.71 94ZM191.659 94C190.091 94 189.307 93.216 189.307 91.648V56.928C189.307 55.36 190.091 54.576 191.659 54.576C193.227 54.576 194.011 55.36 194.011 56.928V77.956L207.339 66.504C208.534 65.4773 209.635 65.552 210.643 66.728C211.67 67.9227 211.595 69.024 210.419 70.032L200.199 78.852L209.971 89.968C211.017 91.1813 210.961 92.2827 209.803 93.272C208.609 94.2987 207.489 94.224 206.443 93.048L196.615 81.96L194.011 84.2V91.648C194.011 93.216 193.227 94 191.659 94ZM229.711 94C228.927 94 228.339 93.804 227.947 93.412C227.555 93.02 227.359 92.432 227.359 91.648V60.792H216.495C215.711 60.792 215.123 60.596 214.731 60.204C214.339 59.812 214.143 59.224 214.143 58.44C214.143 57.656 214.339 57.068 214.731 56.676C215.123 56.284 215.711 56.088 216.495 56.088H242.927C243.711 56.088 244.299 56.284 244.691 56.676C245.083 57.068 245.279 57.656 245.279 58.44C245.279 59.224 245.083 59.812 244.691 60.204C244.299 60.596 243.711 60.792 242.927 60.792H232.063V91.648C232.063 92.3947 231.857 92.9733 231.447 93.384C231.055 93.7947 230.476 94 229.711 94ZM256.792 94C253.077 94 250.314 93.104 248.504 91.312C246.712 89.52 245.816 86.776 245.816 83.08V76.584C245.816 72.832 246.712 70.0693 248.504 68.296C250.314 66.504 253.077 65.608 256.792 65.608H261.384C265.117 65.608 267.88 66.504 269.672 68.296C271.464 70.088 272.36 72.8507 272.36 76.584V83.024C272.36 86.7387 271.464 89.5013 269.672 91.312C267.88 93.104 265.117 94 261.384 94H256.792ZM250.52 83.08C250.52 85.488 250.958 87.1307 251.836 88.008C252.713 88.8667 254.365 89.296 256.792 89.296H261.384C263.829 89.296 265.481 88.8573 266.34 87.98C267.217 87.1027 267.656 85.4507 267.656 83.024V76.584C267.656 74.1387 267.217 72.4867 266.34 71.628C265.481 70.7507 263.829 70.312 261.384 70.312H256.792C255.168 70.312 253.898 70.4987 252.984 70.872C252.088 71.2267 251.453 71.8613 251.08 72.776C250.706 73.672 250.52 74.9413 250.52 76.584V83.08ZM285.602 94C284.034 94 283.25 93.216 283.25 91.648V56.928C283.25 55.36 284.034 54.576 285.602 54.576C287.17 54.576 287.954 55.36 287.954 56.928V77.956L301.282 66.504C302.477 65.4773 303.578 65.552 304.586 66.728C305.613 67.9227 305.538 69.024 304.362 70.032L294.142 78.852L303.914 89.968C304.959 91.1813 304.903 92.2827 303.746 93.272C302.551 94.2987 301.431 94.224 300.386 93.048L290.558 81.96L287.954 84.2V91.648C287.954 93.216 287.17 94 285.602 94Z" fill="white"/>
<g id="Group 28">
<path id="Union_4" d="M446.7 92.8784C446.7 91.3804 447.915 90.166 449.413 90.166C450.911 90.166 452.125 88.9516 452.125 87.4536C452.125 85.9556 453.339 84.7412 454.837 84.7412C456.335 84.7412 457.55 83.5268 457.55 82.0288C457.55 80.5308 456.335 79.3164 454.837 79.3164L428.617 79.3164C426.619 79.3164 425 77.6972 425 75.6997C425 73.7023 426.619 72.083 428.617 72.083L454.837 72.083C456.335 72.083 457.55 70.8686 457.55 69.3706C457.55 67.8726 456.335 66.6582 454.837 66.6582C453.339 66.6582 452.125 65.4438 452.125 63.9458C452.125 62.4478 450.911 61.2334 449.413 61.2334C447.915 61.2334 446.7 60.019 446.7 58.521L446.7 57.6167C446.7 55.6192 448.319 54 450.317 54L451.221 54C452.719 54 453.934 55.2144 453.934 56.7124C453.934 58.2104 455.148 59.4248 456.646 59.4248C458.144 59.4248 459.358 60.6397 459.358 62.1377C459.358 63.6357 460.573 64.8506 462.071 64.8506C463.569 64.8506 464.783 66.065 464.783 67.563L464.783 69.3706C464.783 70.8686 465.998 72.083 467.496 72.083C468.994 72.083 470.208 73.2974 470.208 74.7954L470.208 76.604C470.208 78.102 468.994 79.3164 467.496 79.3164C465.998 79.3164 464.783 80.5308 464.783 82.0288L464.783 83.8374C464.783 85.3354 463.569 86.5498 462.071 86.5498C460.573 86.5498 459.358 87.7642 459.358 89.2622C459.358 90.7602 458.144 91.9746 456.646 91.9746C455.148 91.9746 453.934 93.189 453.934 94.687C453.934 96.185 452.719 97.3994 451.221 97.3994L450.317 97.3994C448.319 97.3994 446.7 95.7802 446.7 93.7827L446.7 92.8784Z" fill="white"/>
</g>
</g>
</g>
</g>
</g>
</svg>
