<svg width="805" height="126" viewBox="0 0 805 126" fill="none" xmlns="http://www.w3.org/2000/svg">
<rect width="805" height="126" fill="#E3E3E3"/>
<g id="Hauptseite">
<g id="Frame 27">
<rect width="7140" height="1440" transform="translate(-727 -182)" fill="#FAFAFA"/>
<g id="Group 29">
<path id="Union" d="M744.8 13.2998C744.8 20.6451 750.754 26.5996 758.1 26.5996H777C792.464 26.5996 805 39.1356 805 54.5996V67.1992C805 82.6632 792.464 95.1992 777 95.1992H760.2C751.695 95.1992 744.8 102.094 744.8 110.6C744.8 119.105 737.905 126 729.399 126H28C12.536 126 0 113.464 0 98V28C0 12.536 12.536 0 28 0H731.5C738.845 0 744.8 5.95453 744.8 13.2998Z" fill="black"/>
<path id="KI Bilder und Deepfake" d="M55.966 83.4004C54.398 83.4004 53.614 82.6164 53.614 81.0484V47.7844C53.614 46.2164 54.398 45.4324 55.966 45.4324C57.534 45.4324 58.318 46.2164 58.318 47.7844V61.0844L72.598 46.3284C73.6807 45.1711 74.7821 45.1524 75.9021 46.2724C77.0594 47.3551 77.0781 48.4564 75.958 49.5764L64.058 61.8684L78.086 79.3124C79.038 80.5631 78.926 81.6644 77.7501 82.6164C76.5367 83.6057 75.4354 83.4937 74.446 82.2804L60.754 65.3124L58.318 67.8324V81.0484C58.318 82.6164 57.534 83.4004 55.966 83.4004ZM89.4313 83.4004C88.6287 83.4004 88.0313 83.2137 87.6393 82.8404C87.266 82.4484 87.0793 81.8511 87.0793 81.0484V47.8404C87.0793 47.0191 87.266 46.4217 87.6393 46.0484C88.0313 45.6751 88.6287 45.4884 89.4313 45.4884C90.2527 45.4884 90.85 45.6751 91.2233 46.0484C91.5967 46.4217 91.7833 47.0191 91.7833 47.8404V81.0484C91.7833 81.8511 91.5967 82.4484 91.2233 82.8404C90.85 83.2137 90.2527 83.4004 89.4313 83.4004ZM124.588 83.4004C123.02 83.4004 122.236 82.6164 122.236 81.0484V47.7844C122.236 46.2164 123.02 45.4324 124.588 45.4324H139.204C142.172 45.4324 144.45 46.2164 146.036 47.7844C147.642 49.3524 148.444 51.5924 148.444 54.5044V56.0164C148.444 58.5364 147.651 60.4871 146.064 61.8684C149.032 63.5297 150.516 66.5631 150.516 70.9684V72.8724C150.516 76.3071 149.602 78.9204 147.772 80.7124C145.962 82.5044 143.348 83.4004 139.932 83.4004H124.588ZM126.94 78.6964H139.932C142.042 78.6964 143.544 78.2484 144.44 77.3524C145.355 76.4377 145.812 74.9444 145.812 72.8724V70.9684C145.812 68.8964 145.374 67.4217 144.496 66.5444C143.619 65.6484 142.098 65.2004 139.932 65.2004H126.94V78.6964ZM126.94 60.4964H140.212C141.575 60.4964 142.499 60.0764 142.984 59.2364C143.488 58.3964 143.74 57.3231 143.74 56.0164V54.5044C143.74 52.8804 143.404 51.7511 142.732 51.1164C142.06 50.4631 140.884 50.1364 139.204 50.1364H126.94V60.4964ZM162.082 50.4164C160.309 50.4164 159.422 49.5204 159.422 47.7284V46.0764C159.422 44.3217 160.309 43.4444 162.082 43.4444H163.706C165.405 43.4444 166.254 44.3217 166.254 46.0764V47.7284C166.254 49.5204 165.405 50.4164 163.706 50.4164H162.082ZM162.866 83.4004C161.298 83.4004 160.514 82.6164 160.514 81.0484V57.3604C160.514 55.7924 161.298 55.0084 162.866 55.0084C164.434 55.0084 165.218 55.7924 165.218 57.3604V81.0484C165.218 82.6164 164.434 83.4004 162.866 83.4004ZM185.92 83.4004C183.064 83.4004 180.936 82.7004 179.536 81.3004C178.155 79.8817 177.464 77.7444 177.464 74.8884V46.3284C177.464 44.7604 178.248 43.9764 179.816 43.9764C181.384 43.9764 182.168 44.7604 182.168 46.3284V74.8884C182.168 76.4004 182.411 77.4177 182.896 77.9404C183.4 78.4444 184.408 78.6964 185.92 78.6964C187.525 78.6964 188.328 79.4804 188.328 81.0484C188.384 82.6164 187.581 83.4004 185.92 83.4004ZM205.796 83.4004C202.081 83.4004 199.318 82.5044 197.508 80.7124C195.716 78.9017 194.82 76.1391 194.82 72.4244V65.9844C194.82 62.2511 195.716 59.4884 197.508 57.6964C199.318 55.9044 202.081 55.0084 205.796 55.0084H216.66V46.3284C216.66 44.7604 217.444 43.9764 219.012 43.9764C220.58 43.9764 221.364 44.7604 221.364 46.3284V81.0484C221.364 82.6164 220.58 83.4004 219.012 83.4004C217.444 83.4004 216.66 82.6164 216.66 81.0484V80.6564C215.782 81.5524 214.634 82.2337 213.216 82.7004C211.797 83.1671 210.033 83.4004 207.924 83.4004H205.796ZM205.796 78.6964H207.924C210.388 78.6964 212.46 78.3791 214.14 77.7444C215.82 77.1097 216.66 76.1391 216.66 74.8324V59.7124H205.796C203.369 59.7124 201.717 60.1604 200.84 61.0564C199.962 61.9337 199.524 63.5764 199.524 65.9844V72.4244C199.524 74.8511 199.962 76.5031 200.84 77.3804C201.736 78.2577 203.388 78.6964 205.796 78.6964ZM236.434 71.1364V72.4804C236.434 74.8884 236.873 76.5311 237.75 77.4084C238.627 78.2671 240.279 78.6964 242.706 78.6964H247.298C249.202 78.6964 250.611 78.5191 251.526 78.1644C252.441 77.8097 253.047 77.1844 253.346 76.2884C253.551 75.5791 253.831 75.0377 254.186 74.6644C254.559 74.2911 255.119 74.1044 255.866 74.1044C256.65 74.1044 257.247 74.3097 257.658 74.7204C258.069 75.1311 258.199 75.7284 258.05 76.5124C257.639 78.8271 256.538 80.5537 254.746 81.6924C252.954 82.8311 250.471 83.4004 247.298 83.4004H242.706C238.991 83.4004 236.229 82.5044 234.418 80.7124C232.626 78.9204 231.73 76.1764 231.73 72.4804V65.9844C231.73 62.1951 232.626 59.4137 234.418 57.6404C236.229 55.8484 238.991 54.9711 242.706 55.0084H247.298C251.031 55.0084 253.794 55.9044 255.586 57.6964C257.378 59.4697 258.274 62.2324 258.274 65.9844V68.7844C258.274 70.3524 257.49 71.1364 255.922 71.1364H236.434ZM242.706 59.7124C240.279 59.6751 238.627 60.0951 237.75 60.9724C236.873 61.8497 236.434 63.5204 236.434 65.9844V66.4324H253.57V65.9844C253.57 63.5391 253.131 61.8871 252.254 61.0284C251.395 60.1511 249.743 59.7124 247.298 59.7124H242.706ZM271.516 83.4004C269.948 83.4004 269.164 82.6164 269.164 81.0484V57.3604C269.164 55.7924 269.948 55.0084 271.516 55.0084C273.084 55.0084 273.868 55.7924 273.868 57.3604V59.5444C274.97 58.0511 276.37 56.9217 278.068 56.1564C279.786 55.3911 281.746 55.0084 283.948 55.0084C285.516 55.0084 286.3 55.7924 286.3 57.3604C286.3 58.9284 285.516 59.7124 283.948 59.7124C280.719 59.7124 278.255 60.3097 276.556 61.5044C274.858 62.6991 273.962 64.2764 273.868 66.2364V81.0484C273.868 82.6164 273.084 83.4004 271.516 83.4004ZM334.94 55.0084C336.508 55.0084 337.292 55.7924 337.292 57.3604V81.0484C337.292 82.6164 336.508 83.4004 334.94 83.4004C333.372 83.4004 332.588 82.6164 332.588 81.0484V80.1244C330.61 82.3084 327.698 83.4004 323.852 83.4004H322.284C318.57 83.4004 315.807 82.5044 313.996 80.7124C312.204 78.9017 311.308 76.1391 311.308 72.4244V57.3604C311.308 55.7924 312.092 55.0084 313.66 55.0084C315.228 55.0084 316.012 55.7924 316.012 57.3604V72.4244C316.012 74.8511 316.451 76.5031 317.328 77.3804C318.224 78.2577 319.876 78.6964 322.284 78.6964H323.852C326.092 78.6964 328.043 78.4351 329.704 77.9124C331.384 77.3897 332.346 76.5871 332.588 75.5044V57.3604C332.588 55.7924 333.372 55.0084 334.94 55.0084ZM351.897 83.4004C350.329 83.4004 349.545 82.6164 349.545 81.0484V57.3604C349.545 55.7924 350.329 55.0084 351.897 55.0084C353.465 55.0084 354.249 55.7924 354.249 57.3604V58.2844C356.227 56.1004 359.139 55.0084 362.985 55.0084H364.553C368.286 55.0084 371.049 55.9044 372.841 57.6964C374.633 59.4884 375.529 62.2511 375.529 65.9844V81.0484C375.529 82.6164 374.745 83.4004 373.177 83.4004C371.609 83.4004 370.825 82.6164 370.825 81.0484V65.9844C370.825 63.5391 370.377 61.8871 369.481 61.0284C368.603 60.1511 366.961 59.7124 364.553 59.7124H362.985C360.745 59.7124 358.794 59.9737 357.133 60.4964C355.471 61.0004 354.51 61.8031 354.249 62.9044V81.0484C354.249 82.6164 353.465 83.4004 351.897 83.4004ZM396.853 83.4004C393.138 83.4004 390.376 82.5044 388.565 80.7124C386.773 78.9017 385.877 76.1391 385.877 72.4244V65.9844C385.877 62.2511 386.773 59.4884 388.565 57.6964C390.376 55.9044 393.138 55.0084 396.853 55.0084H407.717V46.3284C407.717 44.7604 408.501 43.9764 410.069 43.9764C411.637 43.9764 412.421 44.7604 412.421 46.3284V81.0484C412.421 82.6164 411.637 83.4004 410.069 83.4004C408.501 83.4004 407.717 82.6164 407.717 81.0484V80.6564C406.84 81.5524 405.692 82.2337 404.273 82.7004C402.854 83.1671 401.09 83.4004 398.981 83.4004H396.853ZM396.853 78.6964H398.981C401.445 78.6964 403.517 78.3791 405.197 77.7444C406.877 77.1097 407.717 76.1391 407.717 74.8324V59.7124H396.853C394.426 59.7124 392.774 60.1604 391.897 61.0564C391.02 61.9337 390.581 63.5764 390.581 65.9844V72.4244C390.581 74.8511 391.02 76.5031 391.897 77.3804C392.793 78.2577 394.445 78.6964 396.853 78.6964ZM444.691 83.4004C443.123 83.4004 442.339 82.6164 442.339 81.0484V47.7844C442.339 46.2164 443.123 45.4324 444.691 45.4324H458.187C463.059 45.4324 466.643 46.5897 468.939 48.9044C471.254 51.2004 472.411 54.7844 472.411 59.6564V69.1764C472.411 74.0484 471.263 77.6417 468.967 79.9564C466.69 82.2524 463.096 83.4004 458.187 83.4004H444.691ZM447.043 78.6964H458.187C460.576 78.6964 462.462 78.4071 463.843 77.8284C465.243 77.2311 466.232 76.2417 466.811 74.8604C467.408 73.4604 467.707 71.5657 467.707 69.1764V59.6564C467.707 57.2857 467.408 55.4097 466.811 54.0284C466.232 52.6284 465.243 51.6297 463.843 51.0324C462.462 50.4351 460.576 50.1364 458.187 50.1364H447.043V78.6964ZM486.656 71.1364V72.4804C486.656 74.8884 487.095 76.5311 487.972 77.4084C488.85 78.2671 490.502 78.6964 492.928 78.6964H497.52C499.424 78.6964 500.834 78.5191 501.748 78.1644C502.663 77.8097 503.27 77.1844 503.568 76.2884C503.774 75.5791 504.054 75.0377 504.408 74.6644C504.782 74.2911 505.342 74.1044 506.088 74.1044C506.872 74.1044 507.47 74.3097 507.88 74.7204C508.291 75.1311 508.422 75.7284 508.272 76.5124C507.862 78.8271 506.76 80.5537 504.968 81.6924C503.176 82.8311 500.694 83.4004 497.52 83.4004H492.928C489.214 83.4004 486.451 82.5044 484.64 80.7124C482.848 78.9204 481.952 76.1764 481.952 72.4804V65.9844C481.952 62.1951 482.848 59.4137 484.64 57.6404C486.451 55.8484 489.214 54.9711 492.928 55.0084H497.52C501.254 55.0084 504.016 55.9044 505.808 57.6964C507.6 59.4697 508.496 62.2324 508.496 65.9844V68.7844C508.496 70.3524 507.712 71.1364 506.144 71.1364H486.656ZM492.928 59.7124C490.502 59.6751 488.85 60.0951 487.972 60.9724C487.095 61.8497 486.656 63.5204 486.656 65.9844V66.4324H503.792V65.9844C503.792 63.5391 503.354 61.8871 502.476 61.0284C501.618 60.1511 499.966 59.7124 497.52 59.7124H492.928ZM522.747 71.1364V72.4804C522.747 74.8884 523.185 76.5311 524.063 77.4084C524.94 78.2671 526.592 78.6964 529.019 78.6964H533.611C535.515 78.6964 536.924 78.5191 537.839 78.1644C538.753 77.8097 539.36 77.1844 539.659 76.2884C539.864 75.5791 540.144 75.0377 540.499 74.6644C540.872 74.2911 541.432 74.1044 542.179 74.1044C542.963 74.1044 543.56 74.3097 543.971 74.7204C544.381 75.1311 544.512 75.7284 544.363 76.5124C543.952 78.8271 542.851 80.5537 541.059 81.6924C539.267 82.8311 536.784 83.4004 533.611 83.4004H529.019C525.304 83.4004 522.541 82.5044 520.731 80.7124C518.939 78.9204 518.043 76.1764 518.043 72.4804V65.9844C518.043 62.1951 518.939 59.4137 520.731 57.6404C522.541 55.8484 525.304 54.9711 529.019 55.0084H533.611C537.344 55.0084 540.107 55.9044 541.899 57.6964C543.691 59.4697 544.587 62.2324 544.587 65.9844V68.7844C544.587 70.3524 543.803 71.1364 542.235 71.1364H522.747ZM529.019 59.7124C526.592 59.6751 524.94 60.0951 524.063 60.9724C523.185 61.8497 522.747 63.5204 522.747 65.9844V66.4324H539.883V65.9844C539.883 63.5391 539.444 61.8871 538.567 61.0284C537.708 60.1511 536.056 59.7124 533.611 59.7124H529.019ZM557.829 94.6004C556.261 94.6004 555.477 93.8164 555.477 92.2484V57.3604C555.477 55.7924 556.261 55.0084 557.829 55.0084C559.397 55.0084 560.181 55.7924 560.181 57.3604V58.0604C561.189 57.0524 562.43 56.2964 563.905 55.7924C565.398 55.2697 567.069 55.0084 568.917 55.0084H571.045C574.778 55.0084 577.541 55.9044 579.333 57.6964C581.125 59.4884 582.021 62.2511 582.021 65.9844V72.4244C582.021 76.1391 581.125 78.9017 579.333 80.7124C577.541 82.5044 574.778 83.4004 571.045 83.4004H560.181V92.2484C560.181 93.8164 559.397 94.6004 557.829 94.6004ZM560.181 78.6964H571.045C573.49 78.6964 575.142 78.2577 576.001 77.3804C576.878 76.5031 577.317 74.8511 577.317 72.4244V65.9844C577.317 63.5391 576.878 61.8871 576.001 61.0284C575.142 60.1511 573.49 59.7124 571.045 59.7124H568.917C566.584 59.7124 564.568 59.9924 562.869 60.5524C561.17 61.1124 560.274 61.9991 560.181 63.2124V78.6964ZM596.35 83.4004C594.782 83.4004 593.998 82.6164 593.998 81.0484V59.7124H591.926C590.358 59.7124 589.574 58.9284 589.574 57.3604C589.574 55.7924 590.358 55.0084 591.926 55.0084H593.998V54.7844C593.998 51.1071 594.885 48.3911 596.658 46.6364C598.432 44.8631 601.148 43.9764 604.806 43.9764C606.15 43.9764 606.822 44.7604 606.822 46.3284C606.822 47.8964 606.15 48.6804 604.806 48.6804C602.454 48.6804 600.849 49.1004 599.99 49.9404C599.132 50.7804 598.702 52.3951 598.702 54.7844V55.0084H604.47C606.038 55.0084 606.822 55.7924 606.822 57.3604C606.822 58.9284 606.038 59.7124 604.47 59.7124H598.702V81.0484C598.702 82.6164 597.918 83.4004 596.35 83.4004ZM623.323 83.4004C620.187 83.4004 617.854 82.6351 616.323 81.1044C614.793 79.5737 614.027 77.2404 614.027 74.1044C614.027 70.9684 614.783 68.6351 616.295 67.1044C617.826 65.5737 620.169 64.8084 623.323 64.8084H635.167C635.055 62.8484 634.542 61.5137 633.627 60.8044C632.713 60.0764 631.145 59.7124 628.923 59.7124H625.675C623.809 59.7124 622.418 59.8431 621.503 60.1044C620.589 60.3471 619.945 60.7951 619.571 61.4484C619.235 62.2324 618.89 62.7737 618.535 63.0724C618.181 63.3711 617.649 63.5204 616.939 63.5204C616.155 63.5204 615.539 63.3057 615.091 62.8764C614.643 62.4284 614.513 61.8404 614.699 61.1124C615.259 59.0031 616.426 57.4631 618.199 56.4924C619.991 55.5031 622.483 55.0084 625.675 55.0084H628.923C632.657 55.0084 635.419 55.9044 637.211 57.6964C639.003 59.4884 639.899 62.2511 639.899 65.9844V81.0484C639.899 82.6164 639.115 83.4004 637.547 83.4004C635.979 83.4004 635.195 82.6164 635.195 81.0484V79.7884C633.198 82.1964 630.286 83.4004 626.459 83.4004H623.323ZM623.323 78.6964H626.459C627.841 78.6964 629.138 78.5751 630.351 78.3324C631.565 78.0711 632.601 77.6044 633.459 76.9324C634.337 76.2604 634.915 75.2991 635.195 74.0484V69.5124H623.323C621.475 69.5124 620.243 69.8204 619.627 70.4364C619.03 71.0524 618.731 72.2751 618.731 74.1044C618.731 75.9524 619.03 77.1844 619.627 77.8004C620.243 78.3977 621.475 78.6964 623.323 78.6964ZM653.959 83.4004C652.391 83.4004 651.607 82.6164 651.607 81.0484V46.3284C651.607 44.7604 652.391 43.9764 653.959 43.9764C655.527 43.9764 656.311 44.7604 656.311 46.3284V67.3564L669.639 55.9044C670.834 54.8777 671.935 54.9524 672.943 56.1284C673.97 57.3231 673.895 58.4244 672.719 59.4324L662.499 68.2524L672.271 79.3684C673.316 80.5817 673.26 81.6831 672.103 82.6724C670.908 83.6991 669.788 83.6244 668.743 82.4484L658.915 71.3604L656.311 73.6004V81.0484C656.311 82.6164 655.527 83.4004 653.959 83.4004ZM682.909 71.1364V72.4804C682.909 74.8884 683.348 76.5311 684.225 77.4084C685.102 78.2671 686.754 78.6964 689.181 78.6964H693.773C695.677 78.6964 697.086 78.5191 698.001 78.1644C698.916 77.8097 699.522 77.1844 699.821 76.2884C700.026 75.5791 700.306 75.0377 700.661 74.6644C701.034 74.2911 701.594 74.1044 702.341 74.1044C703.125 74.1044 703.722 74.3097 704.133 74.7204C704.544 75.1311 704.674 75.7284 704.525 76.5124C704.114 78.8271 703.013 80.5537 701.221 81.6924C699.429 82.8311 696.946 83.4004 693.773 83.4004H689.181C685.466 83.4004 682.704 82.5044 680.893 80.7124C679.101 78.9204 678.205 76.1764 678.205 72.4804V65.9844C678.205 62.1951 679.101 59.4137 680.893 57.6404C682.704 55.8484 685.466 54.9711 689.181 55.0084H693.773C697.506 55.0084 700.269 55.9044 702.061 57.6964C703.853 59.4697 704.749 62.2324 704.749 65.9844V68.7844C704.749 70.3524 703.965 71.1364 702.397 71.1364H682.909ZM689.181 59.7124C686.754 59.6751 685.102 60.0951 684.225 60.9724C683.348 61.8497 682.909 63.5204 682.909 65.9844V66.4324H700.045V65.9844C700.045 63.5391 699.606 61.8871 698.729 61.0284C697.87 60.1511 696.218 59.7124 693.773 59.7124H689.181Z" fill="white"/>
<g id="Group 28">
<path id="Union_2" d="M765.1 78.0796C765.1 76.5816 766.314 75.3672 767.812 75.3672C769.31 75.3672 770.525 74.1528 770.525 72.6548C770.525 71.1568 771.739 69.9424 773.237 69.9424C774.735 69.9424 775.949 68.728 775.949 67.23C775.949 65.732 774.735 64.5176 773.237 64.5176L747.016 64.5176C745.019 64.5176 743.4 62.8983 743.4 60.9009C743.4 58.9034 745.019 57.2842 747.016 57.2842L773.237 57.2842C774.735 57.2842 775.949 56.0698 775.949 54.5718C775.949 53.0738 774.735 51.8594 773.237 51.8594C771.739 51.8594 770.525 50.645 770.525 49.147C770.525 47.6489 769.31 46.4346 767.812 46.4346C766.314 46.4346 765.1 45.2202 765.1 43.7222L765.1 42.8179C765.1 40.8204 766.719 39.2012 768.716 39.2012L769.621 39.2012C771.119 39.2012 772.333 40.4156 772.333 41.9136C772.333 43.4116 773.548 44.626 775.046 44.626C776.544 44.626 777.758 45.8408 777.758 47.3389C777.758 48.8369 778.972 50.0518 780.47 50.0518C781.968 50.0518 783.183 51.2661 783.183 52.7642L783.183 54.5718C783.183 56.0698 784.397 57.2842 785.895 57.2842C787.393 57.2842 788.608 58.4986 788.608 59.9966L788.608 61.8052C788.608 63.3032 787.393 64.5176 785.895 64.5176C784.397 64.5176 783.183 65.732 783.183 67.23L783.183 69.0386C783.183 70.5366 781.968 71.751 780.47 71.751C778.972 71.751 777.758 72.9654 777.758 74.4634C777.758 75.9614 776.544 77.1758 775.046 77.1758C773.548 77.1758 772.333 78.3902 772.333 79.8882C772.333 81.3862 771.119 82.6006 769.621 82.6006L768.716 82.6006C766.719 82.6006 765.1 80.9813 765.1 78.9839L765.1 78.0796Z" fill="white"/>
</g>
</g>
</g>
</g>
</svg>
