<svg width="977" height="584" viewBox="0 0 977 584" fill="none" xmlns="http://www.w3.org/2000/svg" aria-hidden="true">
  <defs>
    <radialGradient id="ig-hover-a" cx="0" cy="0" r="1" gradientUnits="userSpaceOnUse" gradientTransform="matrix(341.707 -252.063 408.518 567.91 -273.114 236.825)">
      <stop offset="0.134515" stop-color="#FE0081"/>
      <stop offset="0.283654" stop-color="#FFC100"/>
      <stop offset="0.619093" stop-color="#FE0081"/>
      <stop offset="1" stop-color="#9D26D4"/>
    </radialGradient>
    <radialGradient id="ig-hover-b" cx="0" cy="0" r="1" gradientUnits="userSpaceOnUse" gradientTransform="matrix(-189.349 -596.19 966.243 -314.695 341.958 509.841)">
      <stop stop-color="#FFC100"/>
      <stop offset="0.358376" stop-color="#FE0187"/>
      <stop offset="0.639529" stop-color="#FE0081"/>
      <stop offset="1" stop-color="#9D26D4" stop-opacity="0"/>
    </radialGradient>
  </defs>
  <path d="M977 140C977 151.046 968.046 160 957 160H939C927.954 160 919 168.954 919 180V333C919 344.046 927.954 353 939 353H957C968.046 353 977 361.954 977 373V564C977 575.046 968.046 584 957 584H271C259.954 584 251 575.046 251 564V436C251 424.954 242.046 416 231 416H20C8.95431 416 0 407.046 0 396V20C0 8.95431 8.95431 0 20 0H957C968.046 0 977 8.95431 977 20V140Z" fill="url(#ig-hover-a)"/>
  <path d="M977 140C977 151.046 968.046 160 957 160H939C927.954 160 919 168.954 919 180V333C919 344.046 927.954 353 939 353H957C968.046 353 977 361.954 977 373V564C977 575.046 968.046 584 957 584H271C259.954 584 251 575.046 251 564V436C251 424.954 242.046 416 231 416H20C8.95431 416 0 407.046 0 396V20C0 8.95431 8.95431 0 20 0H957C968.046 0 977 8.95431 977 20V140Z" fill="url(#ig-hover-b)" fill-opacity="0.71"/>
</svg>
