<svg width="977" height="584" viewBox="0 0 977 584" fill="none" xmlns="http://www.w3.org/2000/svg" aria-hidden="true">
  <path d="M977 140C977 151.046 968.046 160 957 160H939C927.954 160 919 168.954 919 180V333C919 344.046 927.954 353 939 353H957C968.046 353 977 361.954 977 373V564C977 575.046 968.046 584 957 584H271C259.954 584 251 575.046 251 564V436C251 424.954 242.046 416 231 416H20C8.95431 416 0 407.046 0 396V20C0 8.95431 8.95431 0 20 0H957C968.046 0 977 8.95431 977 20V140Z" fill="#F7730D"/>
</svg>
