<svg width="1166" height="272" viewBox="-16 -16 1198 304" fill="none" xmlns="http://www.w3.org/2000/svg" aria-hidden="true">
  <path id="Deepfakes" d="M194.968 80.8H105.968V182.4H194.968V80.8ZM222.169 187.4C222.169 188.867 221.635 190.133 220.569 191.2C219.635 192.133 218.502 192.6 217.168 192.6H204.968V204.6C204.968 206.067 204.502 207.267 203.568 208.2C202.635 209.133 201.435 209.6 199.968 209.6H71.5685C70.1018 209.6 68.9018 209.133 67.9685 208.2C67.0352 207.267 66.5685 206.067 66.5685 204.6V187.4C66.5685 186.067 67.0352 184.933 67.9685 184C68.9018 182.933 70.1018 182.4 71.5685 182.4H78.7685V80.8H71.5685C70.1018 80.8 68.9018 80.3333 67.9685 79.4C67.0352 78.3333 66.5685 77.1333 66.5685 75.8V58.6C66.5685 57.1333 67.0352 55.9333 67.9685 55C68.9018 54.0667 70.1018 53.6 71.5685 53.6H200.169C201.502 53.6 202.568 54 203.368 54.8C204.435 55.8667 204.968 57.0667 204.968 58.4V70.6H217.168C218.502 70.6 219.635 71.1333 220.569 72.2C221.635 73.1333 222.169 74.3333 222.169 75.8V187.4ZM312.697 118.8H265.897V137.4H312.697V118.8ZM340.297 205C340.297 206.467 339.763 207.667 338.697 208.6C337.763 209.533 336.63 210 335.297 210H260.897C259.563 210 258.363 209.533 257.297 208.6C256.363 207.667 255.897 206.467 255.897 205V192.8H243.497C242.03 192.8 240.83 192.333 239.897 191.4C238.963 190.467 238.497 189.267 238.497 187.8V113.8C238.497 112.333 238.963 111.133 239.897 110.2C240.83 109.267 242.03 108.8 243.497 108.8H255.897V96.8C255.897 95.3333 256.363 94.1333 257.297 93.2C258.363 92.2667 259.563 91.8 260.897 91.8H317.697C319.163 91.8 320.363 92.2667 321.297 93.2C322.23 94.4 322.697 95.6 322.697 96.8V108.8H335.097C336.43 108.8 337.563 109.267 338.497 110.2C339.563 111.133 340.097 112.333 340.097 113.8V142.4C340.097 143.867 339.563 145.067 338.497 146C337.563 146.933 336.43 147.4 335.097 147.4H322.697V159.6C322.697 161.067 322.23 162.267 321.297 163.2C320.363 164.133 319.163 164.6 317.697 164.6H265.897V182.8H335.297C336.63 182.8 337.763 183.267 338.697 184.2C339.763 185.133 340.297 186.333 340.297 187.8V205ZM432.411 118.8H385.611V137.4H432.411V118.8ZM460.011 205C460.011 206.467 459.478 207.667 458.411 208.6C457.478 209.533 456.344 210 455.011 210H380.611C379.278 210 378.078 209.533 377.011 208.6C376.078 207.667 375.611 206.467 375.611 205V192.8H363.211C361.744 192.8 360.544 192.333 359.611 191.4C358.678 190.467 358.211 189.267 358.211 187.8V113.8C358.211 112.333 358.678 111.133 359.611 110.2C360.544 109.267 361.744 108.8 363.211 108.8H375.611V96.8C375.611 95.3333 376.078 94.1333 377.011 93.2C378.078 92.2667 379.278 91.8 380.611 91.8H437.411C438.878 91.8 440.078 92.2667 441.011 93.2C441.944 94.4 442.411 95.6 442.411 96.8V108.8H454.811C456.144 108.8 457.278 109.267 458.211 110.2C459.278 111.133 459.811 112.333 459.811 113.8V142.4C459.811 143.867 459.278 145.067 458.211 146C457.278 146.933 456.144 147.4 454.811 147.4H442.411V159.6C442.411 161.067 441.944 162.267 441.011 163.2C440.078 164.133 438.878 164.6 437.411 164.6H385.611V182.8H455.011C456.344 182.8 457.478 183.267 458.411 184.2C459.478 185.133 460.011 186.333 460.011 187.8V205ZM552.125 118.8H505.525V182.8H552.125V118.8ZM579.725 187.8C579.725 189.133 579.192 190.333 578.125 191.4C577.325 192.333 576.192 192.8 574.725 192.8H562.125V205C562.125 206.467 561.658 207.667 560.725 208.6C559.792 209.533 558.592 210 557.125 210H505.525V248.4C505.525 249.867 504.992 251.067 503.925 252C502.992 252.933 501.858 253.4 500.525 253.4H482.925C481.458 253.4 480.258 252.933 479.325 252C478.392 251.067 477.925 249.867 477.925 248.4V113.8C477.925 112.333 478.392 111.133 479.325 110.2C480.258 109.267 481.458 108.8 482.925 108.8H495.325V96.8C495.325 95.3333 495.792 94.1333 496.725 93.2C497.792 92.2667 499.058 91.8 500.525 91.8H557.125C558.592 91.8 559.792 92.2667 560.725 93.2C561.658 94.1333 562.125 95.3333 562.125 96.8V108.8H574.525C575.992 108.8 577.192 109.267 578.125 110.2C579.058 111.133 579.525 112.333 579.525 113.8L579.725 187.8ZM671.552 113.8C671.552 115.133 671.085 116.333 670.152 117.4C669.218 118.333 668.018 118.8 666.552 118.8H644.152V205C644.152 206.467 643.685 207.667 642.752 208.6C641.818 209.533 640.618 210 639.152 210H621.752C620.285 210 619.085 209.533 618.152 208.6C617.218 207.667 616.752 206.467 616.752 205V118.8H595.152C593.685 118.8 592.485 118.333 591.552 117.4C590.618 116.333 590.152 115.133 590.152 113.8V96.6C590.152 95.1333 590.618 93.9333 591.552 93C592.485 92.0667 593.685 91.6 595.152 91.6H616.752V75.4C616.752 73.9333 617.218 72.7333 618.152 71.8C619.085 70.8667 620.285 70.4 621.752 70.4H634.152V58.4C634.152 56.9333 634.618 55.7333 635.552 54.8C636.485 53.8667 637.685 53.4 639.152 53.4H676.352C677.818 53.4 679.018 53.8667 679.952 54.8C680.885 55.7333 681.352 56.9333 681.352 58.4V75.4C681.352 76.8667 680.885 78.0667 679.952 79C679.018 79.9333 677.818 80.4 676.352 80.4H644.152V91.6H666.552C668.018 91.6 669.218 92.0667 670.152 93C671.085 93.9333 671.552 95.1333 671.552 96.6V113.8ZM762.061 118.8H715.261V182.8H762.061V118.8ZM801.661 205C801.661 206.467 801.194 207.667 800.261 208.6C799.328 209.533 798.128 210 796.661 210H710.261C708.794 210 707.594 209.533 706.661 208.6C705.728 207.667 705.261 206.467 705.261 205V192.8H692.861C691.394 192.8 690.194 192.333 689.261 191.4C688.328 190.467 687.861 189.267 687.861 187.8V113.8C687.861 112.333 688.328 111.133 689.261 110.2C690.194 109.267 691.394 108.8 692.861 108.8H705.261V96.8C705.261 95.3333 705.728 94.1333 706.661 93.2C707.594 92.2667 708.794 91.8 710.261 91.8H784.461C785.928 91.8 787.128 92.2667 788.061 93.2C788.994 94.1333 789.461 95.3333 789.461 96.8V182.8H796.661C798.128 182.8 799.328 183.267 800.261 184.2C801.194 185.133 801.661 186.333 801.661 187.8V205ZM914.063 205C914.063 206.467 913.596 207.667 912.663 208.6C911.729 209.533 910.529 210 909.063 210H891.663C890.196 210 888.996 209.533 888.063 208.6C887.129 207.667 886.663 206.467 886.663 205V164.4H839.863V205C839.863 206.467 839.396 207.667 838.463 208.6C837.529 209.533 836.329 210 834.863 210H817.263C815.796 210 814.596 209.533 813.663 208.6C812.729 207.667 812.263 206.467 812.263 205V58.4C812.263 56.9333 812.729 55.7333 813.663 54.8C814.596 53.8667 815.796 53.4 817.263 53.4H834.863C836.329 53.4 837.529 53.8667 838.463 54.8C839.396 55.7333 839.863 56.9333 839.863 58.4V137.2H886.663V96.6C886.663 95.1333 887.129 93.9333 888.063 93C888.996 92.0667 890.196 91.6 891.663 91.6H909.063C910.529 91.6 911.729 92.0667 912.663 93C913.596 93.9333 914.063 95.1333 914.063 96.6V142.2C914.063 143.667 913.596 144.933 912.663 146C911.729 146.933 910.529 147.4 909.063 147.4H896.663V154.2H909.063C910.529 154.2 911.729 154.733 912.663 155.8C913.596 156.733 914.063 157.933 914.063 159.4V205ZM1008.72 118.8H961.916V137.4H1008.72V118.8ZM1036.32 205C1036.32 206.467 1035.78 207.667 1034.72 208.6C1033.78 209.533 1032.65 210 1031.32 210H956.916C955.583 210 954.383 209.533 953.316 208.6C952.383 207.667 951.916 206.467 951.916 205V192.8H939.516C938.049 192.8 936.849 192.333 935.916 191.4C934.983 190.467 934.516 189.267 934.516 187.8V113.8C934.516 112.333 934.983 111.133 935.916 110.2C936.849 109.267 938.049 108.8 939.516 108.8H951.916V96.8C951.916 95.3333 952.383 94.1333 953.316 93.2C954.383 92.2667 955.583 91.8 956.916 91.8H1013.72C1015.18 91.8 1016.38 92.2667 1017.32 93.2C1018.25 94.4 1018.72 95.6 1018.72 96.8V108.8H1031.12C1032.45 108.8 1033.58 109.267 1034.52 110.2C1035.58 111.133 1036.12 112.333 1036.12 113.8V142.4C1036.12 143.867 1035.58 145.067 1034.52 146C1033.58 146.933 1032.45 147.4 1031.12 147.4H1018.72V159.6C1018.72 161.067 1018.25 162.267 1017.32 163.2C1016.38 164.133 1015.18 164.6 1013.72 164.6H961.916V182.8H1031.32C1032.65 182.8 1033.78 183.267 1034.72 184.2C1035.78 185.133 1036.32 186.333 1036.32 187.8V205ZM1156.03 187.8C1156.03 189.267 1155.5 190.467 1154.43 191.4C1153.5 192.333 1152.36 192.8 1151.03 192.8H1138.43V205C1138.43 206.467 1137.96 207.667 1137.03 208.6C1136.1 209.533 1134.9 210 1133.43 210H1059.23C1057.76 210 1056.56 209.533 1055.63 208.6C1054.7 207.667 1054.23 206.467 1054.23 205V187.8C1054.23 186.333 1054.7 185.133 1055.63 184.2C1056.56 183.267 1057.76 182.8 1059.23 182.8H1128.43V164.6H1076.83C1075.36 164.6 1074.1 164.133 1073.03 163.2C1072.1 162.267 1071.63 161.067 1071.63 159.6V147.6H1059.23C1057.76 147.6 1056.56 147.133 1055.63 146.2C1054.7 145.133 1054.23 143.933 1054.23 142.6V113.8C1054.23 112.6 1054.7 111.4 1055.63 110.2C1056.83 109.267 1058.03 108.8 1059.23 108.8H1071.63V96.8C1071.63 95.4667 1072.16 94.2667 1073.23 93.2C1074.16 92.2667 1075.3 91.8 1076.63 91.8H1151.03C1152.36 91.8 1153.5 92.2667 1154.43 93.2C1155.5 94.1333 1156.03 95.3333 1156.03 96.8V113.8C1156.03 115.267 1155.5 116.467 1154.43 117.4C1153.5 118.333 1152.36 118.8 1151.03 118.8H1081.83V137.4H1133.43C1134.9 137.4 1136.1 137.933 1137.03 139C1137.96 139.933 1138.43 141.133 1138.43 142.6V154.6H1151.03C1152.36 154.6 1153.5 155.133 1154.43 156.2C1155.5 157.133 1156.03 158.267 1156.03 159.6V187.8Z" fill="#0E0E0E"/>
</svg>
