<svg width="1304" height="220" viewBox="-16 -36 906 225" fill="none" xmlns="http://www.w3.org/2000/svg" aria-hidden="true">
  <path d="M137.8 58.4C137.8 59.8667 137.267 61.0667 136.2 62C135.267 62.9333 134.133 63.4 132.8 63.4H120.4V75.6C120.4 77.0667 119.867 78.2667 118.8 79.2C117.867 80.1333 116.667 80.6 115.2 80.6H103.2V87.8H132.4C133.867 87.8 135.067 88.2667 136 89.2C136.933 90.1333 137.4 91.3333 137.4 92.8V151.4C137.4 152.867 136.933 154.067 136 155C135.067 155.933 133.867 156.4 132.4 156.4H115.2C113.867 156.4 112.667 155.933 111.6 155C110.667 154.067 110.2 152.867 110.2 151.4V97.8H27.2V151.4C27.2 152.867 26.7333 154.067 25.8 155C24.8667 155.933 23.6667 156.4 22.2 156.4H4.99999C3.53332 156.4 2.33332 155.933 1.39999 155C0.466655 154.067 -1.19805e-05 152.867 -1.19805e-05 151.4V5.00001C-1.19805e-05 3.53334 0.466655 2.33334 1.39999 1.40001C2.33332 0.466672 3.53332 3.33786e-06 4.99999 3.33786e-06H22.2C23.6667 3.33786e-06 24.8667 0.466672 25.8 1.40001C26.7333 2.33334 27.2 3.53334 27.2 5.00001V70.6H93V58.4C93 57.0667 93.4667 55.9333 94.4 55C95.4667 53.9333 96.6667 53.4 98 53.4H110.2V5.00001C110.2 3.53334 110.667 2.33334 111.6 1.40001C112.667 0.466672 113.867 3.33786e-06 115.2 3.33786e-06H132.8C134.133 3.33786e-06 135.267 0.466672 136.2 1.40001C137.267 2.33334 137.8 3.53334 137.8 5.00001V58.4ZM185.595 151.4C185.595 152.867 185.129 154.067 184.195 155C183.262 155.933 182.062 156.4 180.595 156.4H162.995C161.529 156.4 160.329 155.933 159.395 155C158.462 154.067 157.995 152.867 157.995 151.4V5.00001C157.995 3.53334 158.462 2.33334 159.395 1.40001C160.329 0.466672 161.529 3.33786e-06 162.995 3.33786e-06H180.595C182.062 3.33786e-06 183.262 0.466672 184.195 1.40001C185.129 2.33334 185.595 3.53334 185.595 5.00001V151.4ZM414.95 22.4C414.95 23.8667 414.484 25.0667 413.55 26C412.617 26.9333 411.417 27.4 409.95 27.4H306.15V64.6H387.15C388.617 64.6 389.817 65.0667 390.75 66C391.684 66.9333 392.15 68.1333 392.15 69.6V86.8C392.15 88.1333 391.684 89.3333 390.75 90.4C389.817 91.3333 388.617 91.8 387.15 91.8H306.15V151.4C306.15 152.867 305.684 154.067 304.75 155C303.817 155.933 302.617 156.4 301.15 156.4H283.95C282.484 156.4 281.284 155.933 280.35 155C279.417 154.067 278.95 152.867 278.95 151.4V86.8C278.95 85.6 279.417 84.4 280.35 83.2C281.417 82.1333 282.617 81.6 283.95 81.6H296.15V74.6H283.95C282.484 74.6 281.284 74.1333 280.35 73.2C279.417 72.2667 278.95 71.0667 278.95 69.6V27.4H272.15C270.684 27.4 269.484 26.9333 268.55 26C267.617 25.0667 267.15 23.8667 267.15 22.4V5.00001C267.15 3.53334 267.617 2.33334 268.55 1.40001C269.484 0.466672 270.684 3.33786e-06 272.15 3.33786e-06H409.95C411.417 3.33786e-06 412.617 0.466672 413.55 1.40001C414.484 2.33334 414.95 3.53334 414.95 5.00001V22.4ZM487.236 65.4H440.436V129.4H487.236V65.4ZM514.836 134.4C514.836 135.867 514.303 137.067 513.236 138C512.303 138.933 511.103 139.4 509.636 139.4H497.236V151.6C497.236 153.067 496.77 154.267 495.836 155.2C494.903 156.133 493.703 156.6 492.236 156.6H435.436C433.97 156.6 432.77 156.133 431.836 155.2C430.903 154.267 430.436 153.067 430.436 151.6V139.4H418.036C416.57 139.4 415.37 138.933 414.436 138C413.503 137.067 413.036 135.867 413.036 134.4V60.4C413.036 58.9333 413.503 57.7333 414.436 56.8C415.37 55.8667 416.57 55.4 418.036 55.4H430.436V43.4C430.436 41.9333 430.903 40.7333 431.836 39.8C432.77 38.8667 433.97 38.4 435.436 38.4H492.236C493.703 38.4 494.903 38.8667 495.836 39.8C496.77 40.7333 497.236 41.9333 497.236 43.4V55.4H509.636C511.103 55.4 512.303 55.8667 513.236 56.8C514.303 57.7333 514.836 58.9333 514.836 60.4V134.4ZM633.379 151.6C633.379 153.067 632.912 154.267 631.979 155.2C631.045 156.133 629.845 156.6 628.379 156.6H591.179C589.712 156.6 588.512 156.133 587.579 155.2C586.645 154.267 586.179 153.067 586.179 151.6V139.4H573.779C572.312 139.4 571.112 138.933 570.179 138C569.245 137.067 568.779 135.867 568.779 134.4V65.4H536.579C535.112 65.4 533.912 64.9333 532.979 64C532.045 62.9333 531.579 61.7333 531.579 60.4V43.2C531.579 41.8667 532.045 40.7333 532.979 39.8C533.912 38.7333 535.112 38.2 536.579 38.2H568.779V5.00001C568.779 3.53334 569.245 2.33334 570.179 1.40001C571.112 0.466672 572.312 3.33786e-06 573.779 3.33786e-06H591.179C592.645 3.33786e-06 593.845 0.466672 594.779 1.40001C595.712 2.33334 596.179 3.53334 596.179 5.00001V38.2H628.379C629.845 38.2 631.045 38.7333 631.979 39.8C632.912 40.7333 633.379 41.8667 633.379 43.2V60.4C633.379 61.7333 632.912 62.9333 631.979 64C631.045 64.9333 629.845 65.4 628.379 65.4H596.179V129.4H628.379C629.845 129.4 631.045 129.867 631.979 130.8C632.912 131.733 633.379 132.933 633.379 134.4V151.6ZM723.54 65.4H676.74V129.4H723.54V65.4ZM751.14 134.4C751.14 135.867 750.606 137.067 749.54 138C748.606 138.933 747.406 139.4 745.94 139.4H733.54V151.6C733.54 153.067 733.073 154.267 732.14 155.2C731.206 156.133 730.006 156.6 728.54 156.6H671.74C670.273 156.6 669.073 156.133 668.14 155.2C667.206 154.267 666.74 153.067 666.74 151.6V139.4H654.34C652.873 139.4 651.673 138.933 650.74 138C649.806 137.067 649.34 135.867 649.34 134.4V60.4C649.34 58.9333 649.806 57.7333 650.74 56.8C651.673 55.8667 652.873 55.4 654.34 55.4H666.74V43.4C666.74 41.9333 667.206 40.7333 668.14 39.8C669.073 38.8667 670.273 38.4 671.74 38.4H728.54C730.006 38.4 731.206 38.8667 732.14 39.8C733.073 40.7333 733.54 41.9333 733.54 43.4V55.4H745.94C747.406 55.4 748.606 55.8667 749.54 56.8C750.606 57.7333 751.14 58.9333 751.14 60.4V134.4ZM873.197 134.4C873.197 135.867 872.664 137.067 871.597 138C870.664 138.933 869.531 139.4 868.197 139.4H855.597V151.6C855.597 153.067 855.131 154.267 854.197 155.2C853.264 156.133 852.064 156.6 850.597 156.6H776.397C774.931 156.6 773.731 156.133 772.797 155.2C771.864 154.267 771.397 153.067 771.397 151.6V134.4C771.397 132.933 771.864 131.733 772.797 130.8C773.731 129.867 774.931 129.4 776.397 129.4H845.597V111.2H793.997C792.531 111.2 791.264 110.733 790.197 109.8C789.264 108.867 788.797 107.667 788.797 106.2V94.2H776.397C774.931 94.2 773.731 93.7333 772.797 92.8C771.864 91.7333 771.397 90.5333 771.397 89.2V60.4C771.397 59.2 771.864 58 772.797 56.8C773.997 55.8667 775.197 55.4 776.397 55.4H788.797V43.4C788.797 42.0667 789.331 40.8667 790.397 39.8C791.331 38.8667 792.464 38.4 793.797 38.4H868.197C869.531 38.4 870.664 38.8667 871.597 39.8C872.664 40.7333 873.197 41.9333 873.197 43.4V60.4C873.197 61.8667 872.664 63.0667 871.597 64C870.664 64.9333 869.531 65.4 868.197 65.4H798.997V84H850.597C852.064 84 853.264 84.5333 854.197 85.6C855.131 86.5333 855.597 87.7333 855.597 89.2V101.2H868.197C869.531 101.2 870.664 101.733 871.597 102.8C872.664 103.733 873.197 104.867 873.197 106.2V134.4Z" fill="#0E0E0E"/>
</svg>
