<svg viewBox="0 0 45 45" fill="none" xmlns="http://www.w3.org/2000/svg" aria-hidden="true">
  <path d="M765.1 78.0796C765.1 76.5816 766.314 75.3672 767.812 75.3672C769.31 75.3672 770.525 74.1528 770.525 72.6548C770.525 71.1568 771.739 69.9424 773.237 69.9424C774.735 69.9424 775.949 68.728 775.949 67.23C775.949 65.732 774.735 64.5176 773.237 64.5176L747.016 64.5176C745.019 64.5176 743.4 62.8983 743.4 60.9009C743.4 58.9034 745.019 57.2842 747.016 57.2842L773.237 57.2842C774.735 57.2842 775.949 56.0698 775.949 54.5718C775.949 53.0738 774.735 51.8594 773.237 51.8594C771.739 51.8594 770.525 50.645 770.525 49.147C770.525 47.6489 769.31 46.4346 767.812 46.4346C766.314 46.4346 765.1 45.2202 765.1 43.7222L765.1 42.8179C765.1 40.8204 766.719 39.2012 768.716 39.2012L769.621 39.2012C771.119 39.2012 772.333 40.4156 772.333 41.9136C772.333 43.4116 773.548 44.626 775.046 44.626C776.544 44.626 777.758 45.8408 777.758 47.3389C777.758 48.8369 778.972 50.0518 780.47 50.0518C781.968 50.0518 783.183 51.2661 783.183 52.7642L783.183 54.5718C783.183 56.0698 784.397 57.2842 785.895 57.2842C787.393 57.2842 788.608 58.4986 788.608 59.9966L788.608 61.8052C788.608 63.3032 787.393 64.5176 785.895 64.5176C784.397 64.5176 783.183 65.732 783.183 67.23L783.183 69.0386C783.183 70.5366 781.968 71.751 780.47 71.751C778.972 71.751 777.758 72.9654 777.758 74.4634C777.758 75.9614 776.544 77.1758 775.046 77.1758C773.548 77.1758 772.333 78.3902 772.333 79.8882C772.333 81.3862 771.119 82.6006 769.621 82.6006L768.716 82.6006C766.719 82.6006 765.1 80.9813 765.1 78.9839L765.1 78.0796Z" transform="translate(-743.4, -39.2)"/>
</svg>
