<svg width="36" height="36" viewBox="0 0 36 36" fill="none" xmlns="http://www.w3.org/2000/svg">
<path d="M9 12C9.55228 12 10 12.4477 10 13L10 14C10 14.5523 10.4477 15 11 15L12 15C12.5523 15 13 15.4477 13 16L13 17C13 17.5523 13.4477 18 14 18L15 18C15.5523 18 16 18.4477 16 19L16 20C16 20.5523 16.4477 21 17 21L19 21C19.5523 21 20 20.5523 20 20L20 19C20 18.4477 20.4477 18 21 18L22 18C22.5523 18 23 17.5523 23 17L23 16C23 15.4477 23.4477 15 24 15L25 15C25.5523 15 26 14.5523 26 14L26 13C26 12.4477 26.4477 12 27 12L29 12C29.5523 12 30 12.4477 30 13L30 15C30 15.5523 29.5523 16 29 16L28 16C27.4477 16 27 16.4477 27 17L27 18C27 18.5523 26.5523 19 26 19L25 19C24.4477 19 24 19.4477 24 20L24 21C24 21.5523 23.5523 22 23 22L21 22C20.4477 22 20 22.4477 20 23L20 24C20 24.5523 19.5523 25 19 25L17 25C16.4477 25 16 24.5523 16 24L16 23C16 22.4477 15.5523 22 15 22L13 22C12.4477 22 12 21.5523 12 21L12 20C12 19.4477 11.5523 19 11 19L10 19C9.44771 19 9 18.5523 9 18L9 17C9 16.4477 8.55228 16 8 16L7 16C6.44771 16 6 15.5523 6 15L6 13C6 12.4477 6.44771 12 7 12L9 12Z" fill="white"/>
</svg>
